<svg viewBox="38.5 34.99999999999997 203.00000000000003 248.5" xmlns="http://www.w3.org/2000/svg" xmlns:xlink="http://www.w3.org/1999/xlink" overflow="visible" width="203.00000000000003px" height="248.5px"><defs><path d="M83,36.3476251 C83,52.6289957 105.161905,65.8276544 132.5,65.8276544 C159.838095,65.8276544 182,52.6289957 182,36.3476251 C182,34.9853134 181.844841,33.6445843 181.544472,32.3313638 C210.784239,41.4879251 232,68.792221 232,101.051724 L232,110 L32,110 L32,101.051724 C32,68.3970853 53.7386736,40.8197864 83.5337207,32.0021267 C83.1821692,33.4207025 83,34.871494 83,36.3476251 Z" id="masteravataaardefault-path-1"/></defs><g id="Master/Avataaar/Default" stroke="none" stroke-width="1" fill="none" fill-rule="evenodd"><path d="M140,36 C170.927946,36 196,61.072054 196,92 L196.000809,98.1660527 C201.675838,99.1185422 206,104.05429 206,110 L206,124 C206,130.052417 201.519235,135.058294 195.693975,135.881364 C193.627928,155.686472 181.237929,172.421678 164.001014,180.610469 L164,199 L168,199 C207.764502,199 240,231.235498 240,271 L240,280 L40,280 L40,271 C40,231.235498 72.235498,199 112,199 L116,199 L115.999984,180.610943 C98.7625487,172.422324 86.3721119,155.686854 84.3051107,135.88097 C78.480765,135.058294 74,130.052417 74,124 L74,110 C74,104.053942 78.3246685,99.1179645 84.0001873,98.1658855 L84,92 C84,61.072054 109.072054,36 140,36 Z" id="Body" fill="#57331f"/><path d="M115.998216,180.610103 C123.272713,184.066155 131.410519,186 140,186 C148.588785,186 156.725969,184.066469 164.000016,180.610943 L164.000353,185.94579 C157.441661,190.398372 149.524652,193 141,193 C131.589035,193 122.918635,189.829263 115.998807,184.497795 Z" id="shadow" fill-opacity=".24" fill="#000"/><g id="Nose" transform="translate(112.000000, 122.000000) scale(1 1)" fill="#000"><g id="Nose/Medium" stroke="none" stroke-width="1" fill="none" fill-rule="evenodd"><path d="M16,8 C16,12.418278 21.372583,16 28,16 L28,16 C34.627417,16 40,12.418278 40,8" id="Nose" fill-opacity=".16" fill="#000"/></g></g><g id="Clothing" transform="translate(8.000000, 170.000000) scale(1 1)"><defs><path d="M232,101.051724 L232,110 L32,110 L32,101.051724 C32,65.1384292 58.2938256,35.3663869 92.6806879,29.9363855 C93.5844961,35.0070695 96.1171239,39.8245023 100.236125,43.5389794 L100.236125,43.5389794 L129.321203,69.7676333 C130.843316,71.1402598 133.156684,71.1402598 134.678797,69.7676333 L134.678797,69.7676333 L163.763875,43.5389794 C164.189462,43.1551884 164.601167,42.7562772 164.998197,42.3430127 C168.413626,38.7879269 170.516642,34.4534098 171.319249,29.9385703 C205.706684,35.3669637 232,65.1387771 232,101.051724 Z" id="clothingshirt-v-neck-path-1"/></defs><g id="Clothing/Shirt V Neck" stroke="none" stroke-width="1" fill="none" fill-rule="evenodd"><mask id="clothingshirt-v-neck-mask-2" fill="#ffffff"><use xlink:href="#clothingshirt-v-neck-path-1" fill="#ffffff"/></mask><use id="Clothes" fill="#180b17" xlink:href="#clothingshirt-v-neck-path-1"/></g></g><g id="Mouth" transform="translate(86.000000, 134.000000) scale(1 1)" fill="#000"><g id="Mouth/Smile" stroke="none" stroke-width="1" fill="none" fill-rule="evenodd"><path d="M35.117844,15.1280772 C36.1757121,24.6198025 44.2259873,32 54,32 C63.8042055,32 71.8740075,24.574136 72.8917593,15.0400546 C72.9736685,14.272746 72.1167429,13 71.042767,13 C56.1487536,13 44.7379213,13 37.0868244,13 C36.0066168,13 35.0120058,14.1784435 35.117844,15.1280772 Z" id="Mouth" fill-opacity=".7" fill="#000"/><path d="M59,24 C61.9944261,24 64.7093962,25.1964934 66.6929035,27.1374734 C63.3281849,30.1611116 58.8788402,32 54,32 C49.1207895,32 44.6711395,30.1608324 41.3064872,27.1379343 C43.2906038,25.1964934 46.0055739,24 49,24 C50.8007033,24 52.5003486,24.4326806 54.0006412,25.199747 C55.5004036,24.4324891 57.1996952,24 59,24 Z" id="Path" fill-opacity=".7" fill="#FF4F6D"/><path d="M70,13 C70,15.7614237 67.7614237,18 65,18 L44,18 C41.2385763,18 39,15.7614237 39,13 L70,13 Z" id="Path" fill="#FFF"/><g id="Tongue" transform="translate(38.000000, 24.000000)"/></g></g><g id="Eyes" transform="translate(84.000000, 90.000000) scale(1 1)" fill="#000"><defs><path d="M14,14.0481187 C23.6099827,14.0481187 28,18.4994466 28,11.5617716 C28,4.62409673 21.7319865,0 14,0 C6.2680135,0 0,4.62409673 0,11.5617716 C0,18.4994466 4.39001726,14.0481187 14,14.0481187 Z" id="eyessquint-path-1"/><path d="M14,14.0481187 C23.6099827,14.0481187 28,18.4994466 28,11.5617716 C28,4.62409673 21.7319865,0 14,0 C6.2680135,0 0,4.62409673 0,11.5617716 C0,18.4994466 4.39001726,14.0481187 14,14.0481187 Z" id="eyessquint-path-3"/></defs><g id="Eyes/Squint" stroke="none" stroke-width="1" fill="none" fill-rule="evenodd"><g id="Eye" transform="translate(16.000000, 13.000000)"><mask id="eyessquint-mask-2" fill="#ffffff"><use xlink:href="#eyessquint-path-1" fill="#ffffff"/></mask><use id="The-white-stuff" fill="#FFF" xlink:href="#eyessquint-path-1"/><circle fill-opacity=".7" fill="#000" mask="url(#eyessquint-mask-2)" cx="14" cy="10" r="6"/></g><g id="Eye" transform="translate(68.000000, 13.000000)"><mask id="eyessquint-mask-4" fill="#ffffff"><use xlink:href="#eyessquint-path-3" fill="#ffffff"/></mask><use id="Eyeball-Mask" fill="#FFF" xlink:href="#eyessquint-path-3"/><circle fill-opacity=".7" fill="#000" mask="url(#eyessquint-mask-4)" cx="14" cy="10" r="6"/></g></g></g><g id="Eyebrow/Outline" transform="translate(84.000000, 82.000000) scale(1 1)" fill="#000"><g id="Eyebrow/Outline/Default" stroke="none" stroke-width="1" fill="none" fill-rule="evenodd"><g id="I-Browse" transform="translate(12.000000, 6.000000)" fill="#000" fill-opacity=".6" fill-rule="nonzero"><path d="M3.63024536,11.1585767 C7.54515501,5.64986673 18.2779197,2.56083721 27.5230268,4.83118046 C28.5957248,5.0946055 29.6788665,4.43856013 29.9422916,3.36586212 C30.2057166,2.2931641 29.5496712,1.21002236 28.4769732,0.94659732 C17.7403633,-1.69001789 5.31209962,1.88699832 0.369754639,8.84142326 C-0.270109626,9.74178291 -0.0589363917,10.9903811 0.84142326,11.6302454 C1.74178291,12.2701096 2.9903811,12.0589364 3.63024536,11.1585767 Z" id="Eyebrow"/><path d="M61.6302454,11.1585767 C65.545155,5.64986673 76.2779197,2.56083721 85.5230268,4.83118046 C86.5957248,5.0946055 87.6788665,4.43856013 87.9422916,3.36586212 C88.2057166,2.2931641 87.5496712,1.21002236 86.4769732,0.94659732 C75.7403633,-1.69001789 63.3120996,1.88699832 58.3697546,8.84142326 C57.7298904,9.74178291 57.9410636,10.9903811 58.8414233,11.6302454 C59.7417829,12.2701096 60.9903811,12.0589364 61.6302454,11.1585767 Z" id="Eyebrow" transform="translate(73.000154, 6.039198) scale(-1, 1) translate(-73.000154, -6.039198)"/></g></g></g><g id="Facial Hair" transform="translate(57.000000, 72.000000) scale(1 1)" fill="#000"><g id="Facial Hair/Blank" stroke="none" stroke-width="1" fill="none" fill-rule="evenodd" fill-opacity="0"/></g><g id="Hairstyle" transform="translate(7.000000, 0.000000) scale(1 1)"><g id="Hairstyle/The Caesar" stroke="none" stroke-width="1" fill="none" fill-rule="evenodd"><path d="M76,98 C76.3468563,99.488448 77.6727559,99.2226722 78,98 C77.5372601,96.445722 81.2959449,69.2480719 91,62 C94.618222,59.4833872 114.008216,57.2319099 133.312614,57.245568 C152.408606,57.2590787 171.42084,59.5105561 175,62 C184.704055,69.2480719 188.46274,96.445722 188,98 C188.327244,99.2226722 189.653144,99.488448 190,98 C190.719178,87.7019177 190,34.2743628 133,35 C76,35.7256372 75.2808215,87.7019177 76,98 Z" id="Caesar" fill="#2c1b18"/></g></g><g id="Accesories" transform="translate(70.000000, 85.000000) scale(1 1)"><g id="Accesories/Blank" stroke="none" stroke-width="1" fill="none" fill-rule="evenodd" fill-opacity="0"/></g></g></svg>