<svg viewBox="38.5 17.5 203.00000000000003 265.99999999999994" xmlns="http://www.w3.org/2000/svg" xmlns:xlink="http://www.w3.org/1999/xlink" overflow="visible" width="203.00000000000003px" height="265.99999999999994px"><defs><path d="M83,36.3476251 C83,52.6289957 105.161905,65.8276544 132.5,65.8276544 C159.838095,65.8276544 182,52.6289957 182,36.3476251 C182,34.9853134 181.844841,33.6445843 181.544472,32.3313638 C210.784239,41.4879251 232,68.792221 232,101.051724 L232,110 L32,110 L32,101.051724 C32,68.3970853 53.7386736,40.8197864 83.5337207,32.0021267 C83.1821692,33.4207025 83,34.871494 83,36.3476251 Z" id="masteravataaardefault-path-1"/></defs><g id="Master/Avataaar/Default" stroke="none" stroke-width="1" fill="none" fill-rule="evenodd"><path d="M140,36 C170.927946,36 196,61.072054 196,92 L196.000809,98.1660527 C201.675838,99.1185422 206,104.05429 206,110 L206,124 C206,130.052417 201.519235,135.058294 195.693975,135.881364 C193.627928,155.686472 181.237929,172.421678 164.001014,180.610469 L164,199 L168,199 C207.764502,199 240,231.235498 240,271 L240,280 L40,280 L40,271 C40,231.235498 72.235498,199 112,199 L116,199 L115.999984,180.610943 C98.7625487,172.422324 86.3721119,155.686854 84.3051107,135.88097 C78.480765,135.058294 74,130.052417 74,124 L74,110 C74,104.053942 78.3246685,99.1179645 84.0001873,98.1658855 L84,92 C84,61.072054 109.072054,36 140,36 Z" id="Body" fill="#57331f"/><path d="M115.998216,180.610103 C123.272713,184.066155 131.410519,186 140,186 C148.588785,186 156.725969,184.066469 164.000016,180.610943 L164.000353,185.94579 C157.441661,190.398372 149.524652,193 141,193 C131.589035,193 122.918635,189.829263 115.998807,184.497795 Z" id="shadow" fill-opacity=".24" fill="#000"/><g id="Nose" transform="translate(112.000000, 122.000000) scale(1 1)" fill="#000"><g id="Nose/Small" stroke="none" stroke-width="1" fill="none" fill-rule="evenodd"><path d="M20,7 C20,12.5228475 24.0470996,15 28,15 C31.9529004,15 36,12.5228475 36,7 C33.8327451,7.7317728 31.1406373,8.0976592 27.9236765,8.0976592 C24.7406373,8.0976592 22.0994118,7.7317728 20,7 Z" id="Nose" fill-opacity=".16" fill="#000"/></g></g><g id="Clothing" transform="translate(8.000000, 170.000000) scale(1 1)"><defs><path d="M232,101.051724 L232,110 L32,110 L32,101.051724 C32,65.1384292 58.2938256,35.3663869 92.6806879,29.9363855 C93.5844961,35.0070695 96.1171239,39.8245023 100.236125,43.5389794 L100.236125,43.5389794 L129.321203,69.7676333 C130.843316,71.1402598 133.156684,71.1402598 134.678797,69.7676333 L134.678797,69.7676333 L163.763875,43.5389794 C164.189462,43.1551884 164.601167,42.7562772 164.998197,42.3430127 C168.413626,38.7879269 170.516642,34.4534098 171.319249,29.9385703 C205.706684,35.3669637 232,65.1387771 232,101.051724 Z" id="clothingshirt-v-neck-path-1"/></defs><g id="Clothing/Shirt V Neck" stroke="none" stroke-width="1" fill="none" fill-rule="evenodd"><mask id="clothingshirt-v-neck-mask-2" fill="#ffffff"><use xlink:href="#clothingshirt-v-neck-path-1" fill="#ffffff"/></mask><use id="Clothes" fill="#180b17" xlink:href="#clothingshirt-v-neck-path-1"/></g></g><g id="Mouth" transform="translate(86.000000, 134.000000) scale(1 1)" fill="#000"><g id="Mouth/Smile" stroke="none" stroke-width="1" fill="none" fill-rule="evenodd"><path d="M35.117844,15.1280772 C36.1757121,24.6198025 44.2259873,32 54,32 C63.8042055,32 71.8740075,24.574136 72.8917593,15.0400546 C72.9736685,14.272746 72.1167429,13 71.042767,13 C56.1487536,13 44.7379213,13 37.0868244,13 C36.0066168,13 35.0120058,14.1784435 35.117844,15.1280772 Z" id="Mouth" fill-opacity=".7" fill="#000"/><path d="M59,24 C61.9944261,24 64.7093962,25.1964934 66.6929035,27.1374734 C63.3281849,30.1611116 58.8788402,32 54,32 C49.1207895,32 44.6711395,30.1608324 41.3064872,27.1379343 C43.2906038,25.1964934 46.0055739,24 49,24 C50.8007033,24 52.5003486,24.4326806 54.0006412,25.199747 C55.5004036,24.4324891 57.1996952,24 59,24 Z" id="Path" fill-opacity=".7" fill="#FF4F6D"/><path d="M70,13 C70,15.7614237 67.7614237,18 65,18 L44,18 C41.2385763,18 39,15.7614237 39,13 L70,13 Z" id="Path" fill="#FFF"/><g id="Tongue" transform="translate(38.000000, 24.000000)"/></g></g><g id="Eyes" transform="translate(84.000000, 90.000000) scale(1 1)" fill="#000"><defs><path d="M14,14.0481187 C23.6099827,14.0481187 28,18.4994466 28,11.5617716 C28,4.62409673 21.7319865,0 14,0 C6.2680135,0 0,4.62409673 0,11.5617716 C0,18.4994466 4.39001726,14.0481187 14,14.0481187 Z" id="eyessquint-path-1"/><path d="M14,14.0481187 C23.6099827,14.0481187 28,18.4994466 28,11.5617716 C28,4.62409673 21.7319865,0 14,0 C6.2680135,0 0,4.62409673 0,11.5617716 C0,18.4994466 4.39001726,14.0481187 14,14.0481187 Z" id="eyessquint-path-3"/></defs><g id="Eyes/Squint" stroke="none" stroke-width="1" fill="none" fill-rule="evenodd"><g id="Eye" transform="translate(16.000000, 13.000000)"><mask id="eyessquint-mask-2" fill="#ffffff"><use xlink:href="#eyessquint-path-1" fill="#ffffff"/></mask><use id="The-white-stuff" fill="#FFF" xlink:href="#eyessquint-path-1"/><circle fill-opacity=".7" fill="#000" mask="url(#eyessquint-mask-2)" cx="14" cy="10" r="6"/></g><g id="Eye" transform="translate(68.000000, 13.000000)"><mask id="eyessquint-mask-4" fill="#ffffff"><use xlink:href="#eyessquint-path-3" fill="#ffffff"/></mask><use id="Eyeball-Mask" fill="#FFF" xlink:href="#eyessquint-path-3"/><circle fill-opacity=".7" fill="#000" mask="url(#eyessquint-mask-4)" cx="14" cy="10" r="6"/></g></g></g><g id="Eyebrow/Outline" transform="translate(84.000000, 82.000000) scale(1 1)" fill="#000"><g id="Eyebrow/Outline/Raised Excited" stroke="none" stroke-width="1" fill="none" fill-rule="evenodd"><g id="I-Browse" transform="translate(12.000000, 0.000000)" fill="#000" fill-opacity=".6" fill-rule="nonzero"><path d="M3.97579559,17.1279169 C5.47099148,7.60476158 18.0585488,1.10867597 27.1635167,5.30104271 C28.1668367,5.76301969 29.3546946,5.32417444 29.8166716,4.32085442 C30.2786486,3.3175344 29.8398033,2.12967649 28.8364833,1.66769952 C17.3488212,-3.62177466 1.93575948,4.3324746 0.0242044059,16.507492 C-0.147121205,17.5986938 0.598585765,18.6221744 1.68978754,18.7935 C2.78098932,18.9648257 3.80446998,18.2191187 3.97579559,17.1279169 Z" id="Eyebrow"/><path d="M61.9757956,17.1279169 C63.4709915,7.60476158 76.0585488,1.10867597 85.1635167,5.30104271 C86.1668367,5.76301969 87.3546946,5.32417444 87.8166716,4.32085442 C88.2786486,3.3175344 87.8398033,2.12967649 86.8364833,1.66769952 C75.3488212,-3.62177466 59.9357595,4.3324746 58.0242044,16.507492 C57.8528788,17.5986938 58.5985858,18.6221744 59.6897875,18.7935 C60.7809893,18.9648257 61.80447,18.2191187 61.9757956,17.1279169 Z" id="Eyebrow" transform="translate(73.000097, 9.410436) scale(-1, 1) translate(-73.000097, -9.410436)"/></g></g></g><g id="Facial Hair" transform="translate(57.000000, 72.000000) scale(1 1)" fill="#000"><g id="Facial Hair/Blank" stroke="none" stroke-width="1" fill="none" fill-rule="evenodd" fill-opacity="0"/></g><g id="Hairstyle" transform="translate(7.000000, 0.000000) scale(1 1)"><g id="Hairstyle/Dreads 01" stroke="none" stroke-width="1" fill="none" fill-rule="evenodd"><path d="M122.317306,19.3731338 C126.499944,17.6471518 128.572378,22.5039387 132.554013,21.8844657 C135.443268,21.434843 136.223305,21.067662 138.830761,22.7115333 C141.361692,24.3070651 141.96306,23.1664535 144.828996,23.1436082 C146.853806,23.128378 148.093982,24.8202575 149.787729,24.9967295 C150.632467,25.085131 151.441078,24.2050888 152.347562,24.2603811 C155.58496,24.4567186 155.789576,28.6430444 158.361562,29.7955753 C160.711524,30.8487786 163.474332,29.3691289 165.806559,29.0953159 C171.497048,28.4275036 167.60015,33.7425217 167.760755,36.914713 C169.994451,37.4358517 172.261648,35.3509661 174.485163,35.7347015 C177.986623,36.3392753 176.664995,39.9680424 175.853429,42.4144804 C178.279589,42.3707762 184.612828,39.6776748 186.184725,43.1220237 C186.995306,44.8980006 185.106797,47.2689496 185.13767,49.0743937 C185.181023,51.615855 187.048513,53.7186196 187.709327,56.1240021 C188.601032,59.3710203 189.871834,68.0740038 187.636742,70.9565876 C186.890663,71.9188016 181.795829,69.217693 179.671174,68.0439722 C161.825581,58.1840558 158.361562,55.0486831 130.245707,55.4578453 C102.129853,55.8670074 82.8674779,69.0400225 81.7839818,70.3874406 C81.0301584,71.3248831 80.0677773,73.8279219 79.2764086,80.8005402 C78.48504,87.7731584 79.4952061,100.277789 76.6304859,100.262632 C74.1915094,100.249702 73.6608912,76.4770353 74.7137309,67.0463924 C74.8753757,65.5984852 75.4983655,63.0083957 75.0474223,61.7058802 C74.6532986,60.5682485 72.7253768,60.5705662 73.0331217,58.6750651 C73.3829065,56.5173393 75.5584694,57.5890837 76.5060085,56.5574014 C78.3005851,54.602966 75.5321945,54.1404306 75.0730403,52.4306721 C74.4880481,50.2522767 75.8534857,49.45944 77.374493,48.7719658 L78.1396512,48.4310821 C80.1060001,47.5437559 79.8504766,48.3231462 81.4463492,46.5849138 C79.3147968,45.0224912 78.543628,42.8939014 81.4624425,41.7519655 C82.7019616,41.2669159 85.9268789,41.9089031 86.8980654,41.1801698 C87.1512899,40.9901231 87.251463,39.9008308 87.4074703,39.6780059 C88.9583471,37.4593592 88.5757186,35.8532324 88.4183976,33.3624282 C88.2889936,31.3242265 88.3064008,29.4532263 90.7466834,29.2496048 C92.3750712,29.1138571 93.6993269,30.4441843 95.1582415,30.835866 C96.7767762,31.2705896 96.1688403,31.5877757 97.4369334,30.7150174 C99.6630755,29.1817309 98.1479982,26.1942888 99.913344,24.4120212 C102.335891,21.9662454 103.923881,25.5513084 105.868882,25.8218105 C110.09126,26.4101607 108.736132,22.1218586 111.235861,20.5504965 C114.223647,18.6738677 114.512672,22.8012592 116.378847,22.948264 C117.996068,23.0750722 120.907657,19.9545311 122.317306,19.3731338 Z M180.001547,71.3348066 C180.846064,70.2980597 181.666198,70.8995898 182.697184,71.3146953 C183.8124,71.7641482 186.6344,73.8180261 186.831676,73.928751 C188.588868,74.9173665 189.980206,84.8279256 190.047535,88.6176558 C190.08965,90.9562115 190.127358,99.8740101 187.654049,99.1031293 C186.901013,98.868423 185.751682,94.1472484 185.58821,91.3840965 C185.424737,88.6209446 183.855069,79.2200034 181.446757,74.8947261 C180.896491,73.9063366 179.320781,72.1708928 180.001547,71.3348066 Z" id="Dreads-With-Cut" fill="#2c1b18"/></g></g><g id="Accesories" transform="translate(70.000000, 85.000000) scale(1 1)"><g id="Accesories/Prescription 02" stroke="none" stroke-width="1" fill="none" fill-rule="evenodd"><g id="Wayfarers" transform="translate(6.000000, 7.000000)"><path d="M94.5299306,2 L97.5,2 C118.790455,2 126.354091,7.09629136 127.045455,7.77156439 C128.679318,7.77156439 130,9.06150904 130,10.6573466 L130,13.5431288 C130,15.0819721 128.771968,16.3363819 127.219267,16.4240198 L126.612705,16.4391531 C125.44626,16.4830476 122.230186,16.7150617 120.820725,17.9414221 C120.960175,19.434022 121,20.9643151 121,22.5 C121,34.5686429 110.721275,43 96,43 L93.2421498,43 C79.3147125,43 71,35.3359286 71,22.5 C71,20.9522934 71.0404506,19.4100634 71.1814034,17.906131 L69.8004908,17.3608351 C69.5558969,17.2641292 69.0281396,17.090392 68.2963505,16.9099044 C66.256272,16.4067419 64.1589087,16.253569 62.3040836,16.6343084 C61.6235903,16.7739931 60.9922286,16.9836085 60.4128127,17.266732 L58.8308166,18.0394014 C58.9619021,19.5011097 59,20.9979759 59,22.5 C59,34.5686429 48.7212748,43 34,43 L31.2421498,43 C17.3147125,43 9,35.3359286 9,22.5 C9,21.6610668 9.01188509,20.8237427 9.0452193,19.9932548 C8.93099603,19.9593697 8.86363636,19.7504239 8.86363636,19.3146932 C8.86363636,16.8880127 4.68515214,16.5019499 3.35563443,16.4405308 L2.95454545,16.428911 C1.32363636,16.428911 0,15.1389663 0,13.5431288 L0,10.6573466 C0,9.06150904 1.32363636,7.77156439 2.95454545,7.77156439 L3.07093469,7.66991985 C4.26044178,6.70687939 11.8996241,2.09744476 31.8653976,2.00151937 L35.4700694,2 C36.7306767,2 37.9242203,2.0341353 39.0542384,2.10047223 C51.4173567,2.52253128 54.909731,4.23413961 59.8502273,6.6518809 L60.2689233,6.85850899 L60.5639301,6.95819168 C61.3005076,7.19702359 63.0662164,7.70151679 65.0790606,7.76579519 C67.2462948,7.67278567 69.1000195,7.08540191 69.641698,6.89719767 L70.3244551,6.57039601 C75.33305,4.21287789 80.4386483,2.71580366 89.5614746,2.20060541 C91.0895989,2.06864066 92.7423376,2 94.5299306,2 Z M36.1732992,8.00192643 L32.3853606,8 C13.5815608,8 13.0174468,14.4367119 13.0005234,22.7271501 L13,23.5015498 C13,30.5719428 16.116254,39 30.9709365,39 L34,39 C46.3649085,39 55,32.6270373 55,23.5015498 L54.993687,21.7414887 C54.9091306,14.0134217 53.6920357,8.12378857 36.1732992,8.00192643 L36.1732992,8.00192643 Z M97.6146394,8 L94.3853606,8 C75.5815608,8 75.0174468,14.4367119 75.0005234,22.7271501 L75,23.5015498 C75,30.5719428 78.1194833,39 92.9709365,39 L96,39 C108.364909,39 117,32.6270373 117,23.5015498 L116.993351,21.711307 C116.905012,13.9167947 115.643025,8 97.6146394,8 Z" id="Shape" fill-opacity=".16" fill="#000"/><path d="M35.4700694,0 C57.1829942,0 59,10.127 59,20.5 C59,32.5686429 48.7212748,41 34,41 L31.2421498,41 C17.3147125,41 9,33.3359286 9,20.5 C9,10.127 10.8170058,0 32.5299306,0 L35.4700694,0 Z M35.6146394,6 L32.3853606,6 C13,6 13,12.8410159 13,21.5015498 C13,28.5719428 16.116254,37 30.9709365,37 L34,37 C46.3649085,37 55,30.6270373 55,21.5015498 L54.9994766,20.7271501 C54.9825532,12.4367119 54.4184392,6 35.6146394,6 Z" id="Left" fill="#252C2F" fill-rule="nonzero"/><path d="M97.4700694,0 C119.182994,0 121,10.127 121,20.5 C121,32.5686429 110.721275,41 96,41 L93.2421498,41 C79.3147125,41 71,33.3359286 71,20.5 C71,10.127 72.8170058,0 94.5299306,0 L97.4700694,0 Z M97.6146394,6 L94.3853606,6 C75.5815608,6 75.0174468,12.4367119 75.0005234,20.7271501 L75,21.5015498 C75,28.5719428 78.1194833,37 92.9709365,37 L96,37 C108.364909,37 117,30.6270373 117,21.5015498 C117,12.8410159 117,6 97.6146394,6 Z" id="Right" fill="#252C2F" fill-rule="nonzero"/><path d="M2.95454545,5.77156439 C3.64590909,5.09629136 11.2095455,0 32.5,0 C50.3513636,0 54.1302273,1.85267217 59.8502273,4.6518809 L60.2689233,4.85850899 C60.6666014,4.99901896 62.7002447,5.68982981 65.0790606,5.76579519 C67.2462948,5.67278567 69.1000195,5.08540191 69.641698,4.89719767 C76.1703915,1.7220864 82.5610971,0 97.5,0 C118.790455,0 126.354091,5.09629136 127.045455,5.77156439 C128.679318,5.77156439 130,7.06150904 130,8.65734659 L130,11.5431288 C130,13.1389663 128.679318,14.428911 127.045455,14.428911 C127.045455,14.428911 120.143997,14.428911 120.143997,17.3146932 C120.143997,20.2004754 118.181818,13.1389663 118.181818,11.5431288 L118.181818,8.73240251 C114.578575,7.35340151 108.128411,4.78617535 97.5,4.78617535 C85.6584651,4.78617535 79.7610984,6.88602813 74.7022935,8.97112368 L74.7588636,9.10752861 L74.7563667,11.0937608 L72.5391666,16.4436339 L69.8004908,15.3608351 C69.5558969,15.2641292 69.0281396,15.090392 68.2963505,14.9099044 C66.256272,14.4067419 64.1589087,14.253569 62.3040836,14.6343084 C61.6235903,14.7739931 60.9922286,14.9836085 60.4128127,15.266732 L57.7704824,16.5578701 L55.1266751,11.3962031 L55.2440909,9.10175705 L55.3248203,8.90683855 C50.9620526,6.87386374 46.9392639,4.78617535 32.5,4.78617535 C21.8721459,4.78617535 15.422131,7.3524397 11.8181818,8.7314671 L11.8181818,11.5431288 C11.8181818,13.1389663 8.86363636,20.2004754 8.86363636,17.3146932 C8.86363636,14.428911 2.95454545,14.428911 2.95454545,14.428911 C1.32363636,14.428911 0,13.1389663 0,11.5431288 L0,8.65734659 C0,7.06150904 1.32363636,5.77156439 2.95454545,5.77156439 Z" id="Stuff" fill="#252C2F" fill-rule="nonzero"/></g></g></g></g></svg>