<svg id="visual" viewBox="0 0 900 600" width="900" height="600" xmlns="http://www.w3.org/2000/svg" xmlns:xlink="http://www.w3.org/1999/xlink" version="1.1"><rect x="0" y="0" width="900" height="600" fill="#302B27"></rect><g fill="none" stroke="#3182ce" stroke-width="2"><circle r="53" cx="475" cy="592"></circle><circle r="15" cx="355" cy="393"></circle><circle r="37" cx="216" cy="401"></circle><circle r="48" cx="445" cy="108"></circle><circle r="21" cx="292" cy="242"></circle><circle r="47" cx="781" cy="247"></circle><circle r="23" cx="617" cy="336"></circle><circle r="33" cx="655" cy="128"></circle><circle r="50" cx="69" cy="300"></circle><circle r="34" cx="548" cy="186"></circle><circle r="17" cx="825" cy="102"></circle><circle r="46" cx="714" cy="570"></circle><circle r="24" cx="582" cy="479"></circle><circle r="19" cx="395" cy="285"></circle><circle r="18" cx="287" cy="116"></circle><circle r="22" cx="69" cy="63"></circle><circle r="45" cx="748" cy="450"></circle><circle r="22" cx="150" cy="515"></circle><circle r="23" cx="9" cy="589"></circle><circle r="38" cx="356" cy="576"></circle><circle r="51" cx="894" cy="378"></circle><circle r="40" cx="311" cy="3"></circle><circle r="46" cx="615" cy="2"></circle><circle r="26" cx="835" cy="523"></circle><circle r="36" cx="41" cy="444"></circle><circle r="35" cx="503" cy="333"></circle><circle r="29" cx="177" cy="243"></circle><circle r="18" cx="184" cy="57"></circle><circle r="31" cx="502" cy="10"></circle><circle r="31" cx="886" cy="208"></circle><circle r="18" cx="439" cy="483"></circle><circle r="19" cx="59" cy="186"></circle><circle r="27" cx="267" cy="497"></circle><circle r="32" cx="890" cy="5"></circle><circle r="27" cx="603" cy="596"></circle><circle r="41" cx="737" cy="32"></circle></g></svg>