<svg viewBox="-50.24038461538453 132.1249999999999 859.3749999999999 779.5375000000001" xmlns="http://www.w3.org/2000/svg" overflow="visible" xmlns:xlink="http://www.w3.org/1999/xlink" width="859.3749999999999px" height="779.5375000000001px"><g id="Master/Comps/Desk" stroke="none" stroke-width="1" fill="none" fill-rule="evenodd"><g id="Blob" opacity=".288" transform="translate(8.500000, 153.891534) scale(1.5086372360844529 1.5089820359281436)"><g id="Blob/3" stroke="none" stroke-width="1" fill="none" fill-rule="evenodd"><path d="M403.117726,86.0586906 C450.276215,133.788339 488.98052,199.713267 479.997951,261.023451 C471.015382,322.465484 414.478035,379.292772 339.843452,425.176522 C265.340967,471.060272 172.873342,505.868635 114.750836,475.675017 C56.4962326,445.4814 32.5867469,350.022104 40.9088331,278.427632 C49.3630159,206.70131 90.0487705,158.707962 129.281462,112.824212 C168.646251,66.9404613 206.42588,23.1663089 253.320175,16.0464166 C300.082374,8.92652436 355.827142,38.4608923 403.117726,86.0586906 Z" id="blobs-burgers" fill="#CCA4FF"/></g></g><g id="Chair" transform="translate(35.000000, 285.000000) scale(1 1)"><g id="Chair/Office" stroke="none" stroke-width="1" fill="none" fill-rule="evenodd"><g id="Group-21" transform="translate(17.000000, 0.000000)"><path d="M103.2542,227.355 L103.2542,293.645 C103.2542,299.474876 108.026017,304.340723 113.823279,304.496169 L114.1092,304.5 L180.3992,304.5 L180.3992,343.5 L114.1092,343.5 C86.9192929,343.5 64.7025164,321.555123 64.2608998,294.467397 L64.2542,293.645 L64.2542,227.355 L103.2542,227.355 Z" id="Stroke-1" fill="#0A1B45" fill-rule="nonzero"/><path d="M120.6111,258 L96.1921,258 C43.2861,258 0.0001,214.713 0.0001,161.808 L0.0001,96.192 C0.0001,43.287 43.2861,0 96.1921,0 L120.6111,0 C153.6901,0 180.7541,27.064 180.7541,60.143 L180.7541,197.857 C180.7541,230.936 153.6901,258 120.6111,258" id="Fill-3" fill="#5A328E"/><path d="M253.7542,571 L243.7542,571 C239.3542,571 235.7542,566.352 235.7542,560.67 L235.7542,346.33 C235.7542,340.648 239.3542,336 243.7542,336 L253.7542,336 C258.1542,336 261.7542,340.648 261.7542,346.33 L261.7542,560.67 C261.7542,566.352 258.1542,571 253.7542,571" id="Fill-5" fill="#55B0EB"/><path d="M261.7542,586 L248.7542,586 L235.7542,586 C235.7542,586 145.7542,600.6 145.7542,594 L145.7542,591 C145.7542,584.4 151.1542,579 157.7542,579 L235.7542,559 L248.7542,559 L261.7542,559 L339.7542,579 C346.3542,579 351.7542,584.4 351.7542,591 L351.7542,594 C351.7542,600.6 261.7542,586 261.7542,586" id="Fill-7" fill="#0A1B45"/><path d="M256.8313,475 L240.6773,475 C233.5693,475 227.7543,472.25 227.7543,468.89 L227.7543,342.11 C227.7543,338.75 233.5693,336 240.6773,336 L256.8313,336 C263.9383,336 269.7543,338.75 269.7543,342.11 L269.7543,468.89 C269.7543,472.25 263.9383,475 256.8313,475" id="Fill-9" fill="#55B0EB"/><path d="M344.011,356 L153.497,356 C138.239,356 125.754,343.516 125.754,328.257 L125.754,313.743 C125.754,298.484 138.239,286 153.497,286 L344.011,286 C359.27,286 371.754,298.484 371.754,313.743 L371.754,328.257 C371.754,343.516 359.27,356 344.011,356" id="Fill-11" fill="#5A328E"/><path d="M161.7542,608 C161.7542,615.732 155.4862,622 147.7542,622 C140.0222,622 133.7542,615.732 133.7542,608 C133.7542,600.268 140.0222,594 147.7542,594 C155.4862,594 161.7542,600.268 161.7542,608" id="Fill-13" fill="#0A1B45"/><path d="M365.7542,608 C365.7542,615.732 359.4862,622 351.7542,622 C344.0222,622 337.7542,615.732 337.7542,608 C337.7542,600.268 344.0222,594 351.7542,594 C359.4862,594 365.7542,600.268 365.7542,608" id="Fill-15" fill="#0A1B45"/><path d="M263.7542,608 C263.7542,615.732 257.4862,622 249.7542,622 C242.0222,622 235.7542,615.732 235.7542,608 C235.7542,600.268 242.0222,594 249.7542,594 C257.4862,594 263.7542,600.268 263.7542,608" id="Fill-17" fill="#0A1B45"/><path d="M253.7542,596 L245.7542,596 L235.7542,571 C235.7542,564.4 241.1542,559 247.7542,559 L251.7542,559 C258.3542,559 263.7542,564.4 263.7542,571 L253.7542,596 Z" id="Fill-19" fill="#0A1B45"/></g></g></g><g transform="translate(-111.000000, 211.000000) scale(1 1)" id="Master/Character/Sitting"><g id="Master/Character/Sitting" stroke="none" stroke-width="1" fill="none" fill-rule="evenodd"><g id="Legs Sitting" transform="translate(317.000000, 266.000000) scale(1 1)"><g id="Legs Sitting/Jeans Relaxed" stroke="none" stroke-width="1" fill="none" fill-rule="evenodd"><g id="Group-20" transform="translate(0.000000, -1.000000)"><path d="M147.797063,357 L102.272184,312.347991 C99.8328245,309.933177 114.533567,287.616692 116.731205,284.979435 C163.314308,228.036926 197.208865,187.422967 232.374767,121.88332 C240.901456,116.943473 279.161765,134.24897 289.398958,136.125711 C299.252349,138.816074 301.250705,151.545449 296.633082,160.163628 C275.707543,199.28862 177.611873,350.175396 147.797063,357" id="Fill-1" fill="#543629"/><path d="M117.825919,0 C117.825919,0 105.150436,74.5529129 105.150436,74.5529129 C104.448937,77.4737988 106.274856,80.2576432 109.086367,80.7918052 C145.936649,89.3854118 191.060569,97.0587392 222.194971,115.992482 C194.311551,168.57143 157.082478,215.177566 120.452851,261.387582 L194.716085,332 C309.871263,181.770433 452.951417,54.0323887 191.975551,0 C191.975551,0 167.259007,0 117.825919,0 Z" id="Fill-3" fill="#3E36B9"/><path d="M170.491777,338.805518 C166.726514,335.157864 153.1532,322.001718 140.495488,309.735243 C131.643446,322.366583 108.224429,299.466032 118.617473,288.532066 C116.959839,286.926658 116.00383,286 116.00383,286 C110.549708,292.644549 99.5009574,306.013616 94,312.633174 L173.309296,389 L179.952689,380.986956 C185.700684,374.056513 165.692444,351.237932 170.491777,338.805518" id="Fill-5" fill="#D7DBE2"/><path d="M194.240962,332 L120,261.050193 C126.644543,252.735895 133.218468,244.385497 139.701598,236 L215,305.605039 C208.135348,314.483918 201.212917,323.275553 194.240962,332" id="Fill-7" fill="#D7DBE2"/><path d="M400.180454,417.954163 L338.931469,419 C335.636799,419.055001 332.020586,394.090332 331.929374,390.880975 C329.14512,323.128888 320.219292,275.618587 291.566903,214.901242 C287.721278,203.531264 274.928635,193.276146 277.288157,181.536551 C277.885177,170.952886 308.756125,149.109426 314.589976,141.896387 C335.698528,126.062959 347.245536,162.630996 356.167679,177.496809 C390.5019,249.587137 402.805318,330.731578 405.996799,410.945465 C406.104595,414.735792 403.476045,417.90408 400.180454,417.954163" id="Fill-9" fill="#694d3d"/><path d="M87.7268826,0 L30.0976641,48.4351379 C27.3138168,52.0434485 84.9457952,96.9799765 87.7268826,100.016763 C109.207026,102.890344 286.479329,78.6678757 318.838564,372 L417,360.915831 C409.45157,276.085132 392.572802,212.888784 364.516799,163.872084 C316.738091,80.3978037 266.629222,4.72614106 114.812898,0 C114.812898,0 105.784226,0 87.7268826,0 Z" id="Fill-11" fill="#694FD9"/><g id="Group-15" transform="translate(331.000000, 384.000000)" fill="#D7DBE2"><path d="M73.4860449,0.8901 C68.4295534,1.2821 50.1951466,2.6951 33.1929941,4.0111 C35.3794602,19.3701 3.74359576,21.2141 3.80179068,6.2871 C1.57652797,6.4601 0.461587288,6.5611 0.461587288,6.5611 C1.15161271,17.1021 1.46568051,27.6341 1.5294178,38.1571 L108.032579,39.0001 C108.026113,37.1441 108.013181,33.4161 107.971613,31.5771 C112.494189,12.4841 78.3189941,15.0821 73.4860449,0.8901" id="Fill-13"/></g><path d="M417,360.910517 L318.620975,372 C317.648574,361.768864 316.437902,351.574743 315,341.479662 L412.73781,325 C414.442502,336.956834 415.859246,348.92167 417,360.910517" id="Fill-16" fill="#D7DBE2"/><path d="M100.091346,99 L90.9086538,99 C40.7013654,99 -4.00177669e-11,54.676 -4.00177669e-11,0 L191,0 C191,54.676 150.298635,99 100.091346,99" id="Fill-18" fill="#694FD9"/></g><path d="M56,99 C25.072054,99 -4.00139793e-11,73.927946 -4.00177669e-11,43 L-4.00177669e-11,0 L192,0 C192,54.676 151.085538,99 100.615385,99 L56,99 Z" id="PELVIS-PLUS" fill="#694FD9"/></g></g><g id="Body" transform="translate(41.000000, -31.000000) scale(1 1)"><g id="Body/Bomber Jacket Wave" stroke="none" stroke-width="1" fill="none" fill-rule="evenodd"><g id="Group-43" transform="translate(28.000000, -40.000000)"><g id="Group" transform="translate(388.290761, 188.739200)"><path d="M335.476139,131.1262 C350.494139,129.9812 358.966139,136.5402 363.328139,142.1492 C365.509139,144.9402 364.830139,148.4802 362.633139,150.9912 C360.440139,153.4992 356.740139,154.9402 353.034139,153.5142 C349.322139,152.0702 345.758139,149.1922 340.798139,147.0872 C335.843139,144.9902 329.559139,143.7582 320.362139,145.3782 C315.772139,146.2092 313.486139,145.7002 312.902139,144.5872 C312.310139,143.4552 313.414139,141.7122 315.510139,139.8012 C319.736139,136.0212 327.953139,131.6752 335.476139,131.1262" id="SKIN-DARKER" fill="#543629"/><path d="M309.483939,150.4426 C305.727939,142.1326 299.014939,136.0976 291.454939,132.8686 C283.852939,129.5806 275.413939,129.1316 267.532939,131.9916 L264.612939,133.0796 L261.684939,134.0926 C259.733939,134.7616 257.784939,135.4656 255.832939,136.1096 C251.923939,137.3436 248.019939,138.6576 244.114939,139.7356 C234.567939,142.4936 225.016939,144.8416 215.617939,146.4276 C206.224939,148.0106 196.973939,148.9346 188.127939,149.0036 C179.284939,149.0756 170.859939,148.2736 163.245939,146.4806 C161.400939,145.9426 159.541939,145.4486 157.685939,144.9596 L155.022939,144.0486 L152.386939,143.0256 C148.889939,141.5886 145.456939,139.8596 142.087939,137.8406 C128.604939,129.8056 116.225939,116.9356 105.727939,101.5326 C95.2009387,86.1166 86.4589387,68.3216 79.3089387,49.6706 C76.0109387,41.0736 69.9039387,34.3116 62.3619387,30.0626 C54.8329387,25.8476 45.8419387,24.1386 37.0449387,26.5326 C28.2569387,28.9216 21.3759387,35.1756 17.7279387,43.6956 C14.0729387,52.1776 13.6959387,62.9036 17.6749387,73.2776 C26.2999387,95.6956 36.9409387,117.7746 51.2329387,138.7646 C58.3949387,149.2366 66.5059387,159.4166 75.9079387,168.9116 C85.2989387,178.3896 96.0309387,187.1906 108.193939,194.4726 C114.266939,198.1116 120.685939,201.3586 127.372939,204.1006 L132.432939,206.0626 L137.581939,207.8226 C141.024939,208.8196 144.479939,209.7576 147.940939,210.6806 C161.768939,213.9446 175.424939,215.0936 188.576939,215.0026 C201.743939,214.8976 214.456939,213.5566 226.766939,211.4796 C239.078939,209.3906 250.939939,206.4636 262.535939,203.1126 C267.302939,201.7836 271.936939,200.2416 276.607939,198.7556 C278.928939,197.9896 281.213939,197.1696 283.518939,196.3776 L286.967939,195.1776 L290.375939,193.9126 C299.626939,190.5476 306.397939,183.6866 309.806939,175.7766 C313.204939,167.7966 313.233939,158.7396 309.483939,150.4426" id="Fill-3" fill="#543629"/><path d="M287.348239,195.0383 C281.686239,197.0223 276.744239,185.1023 273.013239,170.8563 C271.138239,163.7353 269.531239,156.0413 268.278239,149.2063 C267.029239,142.3713 266.137239,136.3993 265.802239,132.6373 L271.229239,130.6143 C279.296239,127.5083 286.764239,124.9423 293.666239,122.7203 C300.581239,120.5523 306.941239,118.7963 312.820239,117.4793 C324.562239,114.8073 334.351239,113.7913 342.403239,113.7543 C358.484239,113.6453 367.654239,117.5243 370.425239,118.1843 C373.160239,118.8273 375.230239,121.3503 375.708239,124.1633 C376.230239,126.9423 375.282239,129.8933 372.372239,131.0713 C369.607239,132.2123 356.199239,134.0773 343.556239,137.6383 C330.900239,141.2833 318.891239,146.7173 318.218239,157.4323 C317.823239,163.9133 320.298239,167.4303 324.012239,169.3073 C327.730239,171.2083 332.610239,171.3923 336.846239,171.3953 C341.885239,171.3753 345.023239,174.9313 345.800239,178.8353 C346.583239,182.7353 344.945239,186.9773 340.532239,188.0943 C336.845239,189.0653 332.437239,189.6683 327.789239,190.1903 C323.091239,190.6433 318.168239,191.0303 313.245239,191.3293 C303.466239,192.0403 293.909239,192.6193 287.348239,195.0383" id="SKIN-DARKER" fill="#543629"/><path d="M269.716839,124.7722 C261.106839,128.0832 252.465839,130.9872 243.858839,133.5612 C243.208839,133.2612 242.538839,132.9832 241.609839,132.8002 C240.690839,132.6122 239.659839,132.4762 238.524839,132.3872 C236.253839,132.2102 233.580839,132.0742 230.542839,132.1782 C229.039839,132.2192 227.439839,132.2632 225.747839,132.3092 C224.069839,132.3642 222.309839,132.4602 220.475839,132.5882 C216.860839,132.6452 212.889839,133.0222 208.823839,133.0802 C200.642839,133.3932 191.687839,133.5122 183.133839,132.7282 C178.889839,132.2982 174.673839,131.7742 170.825839,130.8922 C169.868839,130.6662 168.902839,130.4582 167.927839,130.2662 C167.417839,130.1962 167.014839,130.0042 166.561839,129.8732 L165.225839,129.4602 C164.345839,129.1782 163.393839,128.9882 162.543839,128.6842 C161.704839,128.3572 160.840839,128.1142 159.999839,127.7382 C156.604839,126.3912 153.155839,124.7452 149.648839,122.5822 C146.139839,120.4492 142.551839,117.9092 138.971839,114.8802 C135.383839,111.8842 131.793839,108.4602 128.295839,104.6772 C124.788839,100.9172 121.362839,96.8292 118.087839,92.5242 C111.507839,83.9482 105.521839,74.5812 100.210839,65.4812 C94.8988387,56.3652 89.5932594,46.4320397 84.9158387,38.6076823 C80.2384181,30.7833248 73.8929146,19.604165 60.1410854,10.1052942 C46.3892562,0.606423435 36.2389387,4.26325641e-14 36.2389387,4.26325641e-14 C24.2979387,2.25 9.76983872,17.6282 4.48183872,29.0232 C-0.824161279,40.3852 -1.72016128,55.0342 3.42383872,69.3532 C7.04683872,83.7192 12.0808387,98.6722 18.8128387,113.7752 C25.5778387,128.8632 34.0658387,144.1282 44.8898387,158.7722 C55.7058387,173.3782 68.9568387,187.4292 84.9158387,199.0872 C92.8928387,204.8892 101.449839,210.1172 110.502839,214.3642 C112.776839,215.4092 115.019839,216.4682 117.343839,217.3882 C118.497839,217.8552 119.647839,218.3212 120.796839,218.7862 C121.964839,219.2112 123.131839,219.6362 124.294839,220.0582 C128.946839,221.7432 133.694839,223.1292 138.297839,224.1882 C140.609839,224.7472 142.910839,225.2842 145.194839,225.7972 C147.448839,226.1862 149.682839,226.5352 151.903839,226.8772 C154.115839,227.1922 156.346839,227.5872 158.493839,227.7862 C160.633839,227.9562 162.757839,228.1262 164.862839,228.2922 C165.914839,228.3662 166.962839,228.4402 168.005839,228.5132 C169.051839,228.5932 170.084839,228.6502 171.084839,228.6442 C173.098839,228.6572 175.094839,228.6712 177.073839,228.6842 C178.060839,228.6842 179.043839,228.6812 180.020839,228.6812 C181.001839,228.6842 181.971839,228.6752 182.905839,228.6062 C184.787839,228.4942 186.650839,228.3832 188.495839,228.2722 C190.331839,228.1452 192.164839,228.0482 193.936839,227.8782 C195.683839,227.6672 197.411839,227.4572 199.118839,227.2502 C200.819839,227.0292 202.499839,226.8112 204.157839,226.5972 C205.816839,226.3802 207.378839,226.0462 208.955839,225.7742 C210.518839,225.4812 212.061839,225.1922 213.583839,224.9082 C215.101839,224.6192 216.601839,224.3402 218.020839,223.9782 C220.886839,223.2952 223.651839,222.6132 226.308839,221.9362 C236.803839,219.0302 245.385839,215.9192 251.891839,212.9792 C255.134839,211.4932 257.954839,210.1862 260.174839,208.8702 C261.290839,208.2232 262.283839,207.6102 263.146839,207.0342 C264.011839,206.4572 264.590839,205.9632 265.142839,205.4772 C275.825839,202.2892 286.285839,198.7502 296.488839,194.8322 L269.716839,124.7722 Z" id="Fill-7" fill="#CC2935"/><path d="M244.142139,133.4807 L265.922139,206.8147 C276.521139,203.6367 286.902139,200.1217 297.025139,196.2347 L269.717139,124.7747 C261.201139,128.0467 252.656139,130.9227 244.142139,133.4807" id="Fill-10" fill="#B52935"/></g><path d="M460.7796,337.8517 L246.2986,337.8517 L246.2986,230.7897 C246.2986,207.3217 265.3236,188.2957 288.7926,188.2957 L418.2856,188.2957 C441.7546,188.2957 460.7796,207.3217 460.7796,230.7897 L460.7796,337.8517 Z" id="Fill-12" fill="#D7DBE2"/><path d="M392.2982,188.296 C392.2982,204.852 384.2982,225.852 357.7982,225.852 C326.2982,225.852 313.2982,207.933 313.2982,188.296 L392.2982,188.296 Z" id="SKIN" fill="#694d3d"/><path d="M399.433,400.2619 C425.298,400.8519 447.298,398.8519 470.744,391.0079 C472.908,390.2829 474.748,388.9049 474.549,386.6299 L471.393,350.5429 C447.312,351.5899 422.164,356.2669 395.695,360.4159 C395.197,373.3359 394.689,385.2619 394.222,395.6089 C394.094,398.4589 396.58,400.1969 399.433,400.2619" id="Fill-16" fill="#CC2935"/><path d="M233.8499,351.6945 L230.9879,384.4175 C230.6509,388.2635 232.9809,391.8695 236.6489,393.0745 C261.2359,401.1525 296.4499,405.2985 319.5659,406.9185 C323.2269,407.1745 326.4479,404.5725 326.9999,400.9435 C328.5669,390.6565 329.6969,379.2315 330.4719,367.0805 C305.7649,366.1185 260.9409,361.8095 233.8499,351.6945" id="Fill-18" fill="#CC2935"/><path d="M274.6615,190.0988 C257.1695,195.3618 244.4255,211.5838 244.4255,230.7898 L233.8495,351.6948 C260.9405,361.8098 305.7655,366.1188 330.4725,367.0798 C333.5245,319.1748 337.2985,222.8518 308.2985,207.8518 C308.2985,207.8518 287.2985,185.8518 274.6615,190.0988" id="Fill-20" fill="#FA3239"/><path d="M395.6947,360.4162 C423.2987,361.8522 446.2987,359.8522 471.3927,350.5432 L460.9187,230.7902 C460.9187,209.3952 445.1047,191.7012 424.5297,188.7392 C421.8627,199.1042 412.1937,202.3552 398.2987,208.8522 C398.9517,253.2532 397.4197,315.7292 395.6947,360.4162" id="Fill-22" fill="#FA3239"/><path d="M33.7972,32.049 C24.7392,32.914 16.8602,37.44 11.6402,44.313 C6.3882,51.163 3.8662,60.356 5.3782,69.939 C8.6792,90.938 13.2602,111.929 19.5592,132.879 C23.1052,144.478 27.2492,156.061 32.2192,167.567 C37.1972,179.066 43.0032,190.502 50.0952,201.656 C57.1792,212.794 65.7102,223.66 76.0612,233.516 C76.7002,234.134 77.3082,234.769 77.9792,235.369 L80.0372,237.144 L84.1812,240.664 L86.2642,242.41 L88.4572,244.07 C89.9212,245.179 91.4002,246.266 92.9202,247.281 C98.9472,251.438 105.2732,255.07 111.7392,258.17 C124.6892,264.384 138.1382,268.459 151.3772,270.981 C164.6382,273.503 177.7282,274.515 190.5102,274.556785 C203.2982,274.588 215.7942,273.64 228.0272,272.037 C240.2632,270.431 252.2322,268.149 263.9922,265.362 C274.8662,262.791 283.5692,256.422 288.5582,248.611 C293.5812,240.787 294.8972,231.57 291.9232,222.964 C288.9462,214.346 282.4462,207.887 274.6812,204.053 C266.8802,200.228 257.7952,199.008 248.7732,201.141 C229.2022,205.778 209.4432,208.594 190.6872,208.556 C171.9602,208.529 154.3252,205.445 140.2822,198.661 C136.7642,196.974 133.4592,195.066 130.3682,192.935 C129.5792,192.422 128.8322,191.861 128.0902,191.295 L126.9672,190.455 L125.8862,189.511 L123.7002,187.651 L122.5952,186.734 C122.2312,186.415 121.8942,186.033 121.5412,185.688 C115.8432,180.268 110.4842,173.656 105.6982,166.1 C96.1022,150.963 88.5632,132.79 82.6982,113.66 C77.4842,96.299 73.4662,78.132 70.5672,59.619 C69.2392,51.199 64.5682,44.028 58.0062,39.008 C51.4202,34.016 42.8812,31.182 33.7972,32.049" id="SKIN" fill="#694d3d"/><path d="M8.3509,14.546 C3.3859,14.829 -0.3851,19.377 0.0319,24.657 C1.8409,47.584 4.9169,70.281 9.5409,93.033 C10.6439,98.267 15.5089,101.609 20.3489,100.499 C25.1999,99.389 28.2329,94.436 27.1769,89.43 C22.7199,67.507 19.7279,45.457 17.9769,23.255 C17.5759,18.176 13.3109,14.268 8.3509,14.546" id="SKIN" fill="#694d3d"/><path d="M23.7933,2.3634 C18.8253,2.4884 14.9233,6.8964 15.2143,12.0574 C15.7863,22.0654 16.6243,31.9844 17.7353,41.8864 C18.3063,46.9924 22.8323,50.6014 27.7713,49.9554 C32.6893,49.3114 36.1753,44.8114 35.6253,39.8944 C34.5483,30.3054 33.7373,20.6864 33.1873,11.0564 C32.9073,6.1284 28.7643,2.2444 23.7933,2.3634" id="SKIN" fill="#694d3d"/><path d="M39.7376,0.0041 C34.7606,-0.0219 30.8236,4.1801 31.0856,9.1661 C31.5856,18.8421 32.3876,28.4951 33.4176,38.1251 C33.9716,43.0881 38.4436,46.6011 43.3876,45.9721 C48.3056,45.3471 51.8476,40.9711 51.3136,36.1971 C50.3186,26.8861 49.5416,17.5241 49.0616,8.2501 C48.8116,3.4961 44.7026,-0.1439 39.7376,0.0041" id="SKIN" fill="#694d3d"/><path d="M66.933,31.6769 C61.988,32.1679 58.355,36.4139 58.924,41.1509 C60.016,50.3339 61.35,59.4789 62.928,68.5469 C63.352,70.8759 66.027,73.3019 68.689,75.0629 C71.329,76.8359 73.849,77.9959 73.849,77.9959 C72.782,72.5079 81.923,72.6539 80.181,62.7499 C78.881,54.8999 77.747,46.9829 76.799,39.0299 C76.252,34.4829 71.88,31.1859 66.933,31.6769" id="SKIN" fill="#694d3d"/><path d="M56.0052,6.9533 C51.0392,7.1723 47.1922,11.2463 47.5302,16.0783 C48.6592,32.2153 50.4902,48.3853 53.0952,64.3513 C53.8412,69.1393 58.5602,72.2533 63.4262,71.3593 C68.3362,70.4533 71.5752,66.0553 70.8622,61.4683 C68.3512,46.0813 66.5762,30.4013 65.4882,14.8513 C65.1652,10.2303 60.9702,6.7283 56.0052,6.9533" id="SKIN" fill="#694d3d"/><path d="M5.0241,100.6072 C7.3921,111.3502 10.0471,122.0962 13.2961,132.8522 C13.1621,133.2292 13.0421,133.6432 12.9371,134.0892 C12.8261,134.5342 12.7391,135.0022 12.7001,135.5942 C12.6061,136.7332 12.5761,138.0232 12.6111,139.4592 C12.6901,142.3302 12.9531,145.7712 13.6701,149.7432 C14.0071,151.7272 14.4071,153.8422 14.8701,156.0762 C15.3611,158.3122 15.9911,160.6762 16.6461,163.1482 C16.9861,164.3852 17.3331,165.6502 17.6891,166.9432 C18.0561,168.2352 18.5131,169.5602 18.9471,170.9072 C19.8531,173.6052 20.7471,176.4032 21.8511,179.3052 C22.9861,182.2072 24.1921,185.2052 25.4661,188.2872 C26.8271,191.3732 28.3501,194.5472 29.8981,197.7922 C30.6391,199.4142 31.5761,201.0582 32.4611,202.7172 C33.3691,204.3732 34.2881,206.0482 35.2181,207.7422 C36.1141,209.4342 37.2051,211.1372 38.2751,212.8532 C39.3601,214.5662 40.4541,216.2952 41.5601,218.0412 C42.6231,219.7862 43.9541,221.5232 45.2001,223.2782 C46.4811,225.0242 47.7711,226.7862 49.0711,228.5602 C50.4001,230.3272 51.9371,232.0722 53.3951,233.8372 C54.8931,235.5942 56.3511,237.3682 57.9461,239.1172 C59.6101,240.8512 61.3001,242.5842 63.0141,244.3142 C64.7301,246.0442 66.4201,247.7882 68.3861,249.4362 C72.2121,252.7692 76.0351,256.1332 80.3391,259.2232 C88.8201,265.4272 98.0521,270.6612 107.5181,274.9242 C116.9951,279.1502 126.7041,282.3422 136.2971,284.6722 C155.5131,289.2712 174.1281,290.4372 191.2041,289.8352 C208.3081,289.2112 223.9871,286.8422 237.9901,283.7622 C252.0031,280.6842 264.3451,276.8502 274.8101,272.9812 C289.5471,269.1622 301.1551,260.1682 307.5561,249.3872 C313.9951,238.6002 315.2971,226.0322 310.4041,214.9092 C305.5501,203.7732 296.7501,195.6012 286.4321,190.8552 C276.0861,186.1272 264.990174,186.1272 252.6951,187.8062 C240.400026,189.4852 229.0451,190.6872 217.1771,191.4412 C205.3231,192.1802 193.6041,192.3222 182.8391,191.4782 C180.1321,191.2972 177.5291,190.9882 174.9501,190.6972 C172.4161,190.3412 169.8991,190.0052 167.5201,189.5392 C162.7061,188.6782 158.2811,187.5422 154.2321,186.2372 C150.1581,184.9522 146.5511,183.4102 143.2321,181.7552 C142.3711,181.3712 141.6251,180.8812 140.8031,180.4772 C140.0291,180.0252 139.2601,179.5742 138.4941,179.1272 L137.3881,178.4162 C137.0121,178.1952 136.6401,177.9582 136.2831,177.6612 C135.5601,177.1072 134.8241,176.5732 134.0771,176.0542 C128.1491,171.7202 122.2221,165.6762 116.9331,159.0302 C111.6231,152.3892 106.9251,145.2602 102.8181,138.7502 C101.8081,137.1002 100.8121,135.5092 99.8341,133.9812 C98.9141,132.3942 98.0131,130.8722 97.1301,129.4212 C95.3221,126.5602 93.8141,123.7812 92.3041,121.4262 C91.9271,120.8342 91.5611,120.2602 91.2071,119.7062 C90.8611,119.1422 90.5251,118.5972 90.2021,118.0712 C89.5451,117.0252 88.9131,116.0682 88.3111,115.2052 C87.7081,114.3432 87.1331,113.5742 86.5901,112.9042 C86.0371,112.2382 85.6041,111.7752 85.1471,111.3462 C82.5161,102.6612 80.3021,93.6902 78.3001,84.6222 L5.0241,100.6072 Z" id="Fill-39" fill="#FA3239"/><path d="M302.2982,147.8517 C261.2982,152.8517 257.4012,187.6157 274.6612,191.0987 C288.2982,193.8517 297.0422,209.8597 309.0022,216.0087 C311.6702,217.3807 314.8122,215.2797 314.6032,212.2867 C314.5442,211.4387 314.4852,210.5957 314.4262,209.7597 C313.7692,200.4887 315.1552,188.6307 324.4492,188.7017 C341.1122,188.8257 366.0632,188.8067 382.0942,188.6657 C390.7902,188.5887 397.9532,196.4937 398.1642,205.1877 C398.1992,206.6147 398.2322,208.0587 398.2612,209.5167 C398.3192,212.4557 401.5062,214.2617 404.0572,212.8007 C414.8662,206.6097 422.2432,198.6227 424.5292,189.7397 C425.0252,187.8147 425.2982,185.8507 425.2982,183.8517 C425.2982,160.6557 343.9662,142.7707 302.2982,147.8517" id="Fill-24" fill="#CC2935"/><path d="M13.1966,132.4992 L86.5036,110.6292 C83.9096,102.0832 81.7436,93.2352 79.7676,84.3032 L5.0256,100.6072 C7.3726,111.2312 9.9786,121.8602 13.1966,132.4992" id="Fill-41" fill="#CC2935"/></g></g></g><g id="Head" transform="translate(362.000000, -61.000000) scale(1 1)"><g id="Head/Short Hair" stroke="none" stroke-width="1" fill="none" fill-rule="evenodd"><g id="Head" transform="translate(22.000000, 72.000000)"><g id="head" transform="translate(0.000000, 0.000100)" fill="#694d3d"><path d="M13,62 L58,62 L58,113.633 C58,127.538 47.926,138.81 35.5,138.81 C23.074,138.81 13,127.538 13,113.633 L13,62 Z" id="SKIN"/><path d="M60.0525,94 L55.0655,94 C31.8335,94 13.0005,75.167 13.0005,51.935 L13.0005,32.203 C13.0005,14.418 27.4175,0 45.2035,0 L50.7965,0 C68.5825,0 83.0005,14.418 83.0005,32.203 L83.0005,71.052 C83.0005,83.726 72.7265,94 60.0525,94" id="SKIN"/><path d="M25,58.5 C25,65.403 19.404,71 12.5,71 C5.596,71 0,65.403 0,58.5 C0,51.597 5.596,46 12.5,46 C19.404,46 25,51.597 25,58.5" id="SKIN"/></g><path d="M10.067,53.1685 C10.9718309,53.1685 12.2239875,53.3771928 13.5088204,54.0196092 C15.6553998,55.0928989 17.0130325,57.055328 17.10411,59.9021045 L17.109,60.2105 L14.109,60.2105 C14.109,58.3751144 13.4076866,57.3231443 12.1671796,56.7028908 C11.7065142,56.4725581 11.1976823,56.3199085 10.686339,56.2346846 C10.4347302,56.1927498 10.2385731,56.1747448 10.1250097,56.169908 L10.067,56.1685 L10.067,53.1685 Z" id="ear-line" fill="#000"/><path d="M34.7507501,96.3317762 C25.4557924,93.0436693 20.8185822,84.7387742 18.9822222,73.5681961 C26.2532122,85.6702724 39.4406226,93.8133264 54.5439426,93.9968331 L55.0655,94 L58,94 C50.0632106,98.2298391 42.3134606,99.0070978 34.7507501,96.3317762 Z" id="SHADOW" fill="#000" opacity=".12"/><path d="M50.8086245,0 C64.717064,0 76.5752072,8.73752555 81.1464316,20.9990758 L25.3655574,20.9997374 L17.109,46.0001 L12.8420404,46 L12.8420404,32.2025974 C12.8420404,14.4178197 27.3241084,0 45.1903817,0 L50.8086245,0 Z" id="Combined-Shape" fill="#000"/></g></g></g><g id="Expression" transform="translate(409.000000, 34.000000) scale(1 1)" fill="#000"><defs><filter id="expressionwink-filter-1"><feColorMatrix in="SourceGraphic" values="0 0 0 0 0.000000 0 0 0 0 0.000000 0 0 0 0 0.000000 0 0 0 1.000000 0"/></filter></defs><g id="Expression/Wink" stroke="none" stroke-width="1" fill="none" fill-rule="evenodd"><g filter="url(#expressionwink-filter-1)" id="Group-17"><g transform="translate(9.000000, 3.000000)"><path d="M37.6862,19.0627 C37.6862,17.4057 36.3432,16.0627 34.6862,16.0627 C33.0292,16.0627 31.6862,17.4057 31.6862,19.0627 C31.6862,20.7197 33.0292,22.0627 34.6862,22.0627 C36.3432,22.0627 37.6862,20.7197 37.6862,19.0627" id="Fill-1" fill="#000"/><path d="M13.0473,38.6487 C13.0473,42.3229625 16.7893817,45.7208933 20.8069435,45.8527329 L21.0483,45.8567 L21.0483,48.8567 C15.4506295,48.8567 10.2215019,44.2907163 10.0515594,38.9179911 L10.0473,38.6487 L13.0473,38.6487 Z" id="Stroke-5" fill="#000" fill-rule="nonzero"/><path d="M2.57564697,9.21147847 C6.2616177,8.06796663 10.3535814,7.81561498 14.5680667,8.99954871 L15.0368326,9.13703524 L14.1597674,12.0059648 C10.4145271,10.8610011 6.75307649,11.056551 3.46455381,12.0767611 C2.87639473,12.2592278 2.35407493,12.4536573 1.90571976,12.6462124 L1.67798076,12.7466018 L1.40843093,12.875962 L0.000169065366,10.227038 C0.505632486,9.95831572 1.38329457,9.5813862 2.57564697,9.21147847 Z" id="Stroke-7" fill="#000" fill-rule="nonzero"/><path d="M27.4327673,1.61074391 C31.7294847,0.539609121 35.85137,0.927023851 39.5454285,2.22070874 C40.6627133,2.61198958 41.5287224,3.00892816 42.1054952,3.32415386 L42.3911858,3.48746626 L40.8460142,6.05893374 L40.6830708,5.96779273 C40.5848397,5.91521377 40.4526078,5.84736079 40.2880352,5.76752086 C39.7889686,5.52540617 39.2078998,5.28115198 38.5538553,5.05210108 C35.5067759,3.98499275 32.1271224,3.6348104 28.6169983,4.41363387 L28.1584327,4.52165609 L27.4327673,1.61074391 Z" id="Stroke-9" fill="#000" fill-rule="nonzero"/><path d="M2.29348496,21.505614 C4.78316311,15.2814186 15.5765131,15.2055138 17.1047395,21.5313094 L17.157071,21.7685258 L14.215329,22.3568742 C13.5401751,18.9811049 6.8011145,18.9218809 5.16179365,22.4285178 L5.07891504,22.619786 L2.29348496,21.505614 Z" id="Stroke-15" fill="#000" fill-rule="nonzero"/></g></g><polygon id="Stroke-5" fill="#000" fill-rule="nonzero" points="33.1977829 19.396766 36.1476171 18.850434 40.4350211 41.9996 30.5607 41.9996 30.5607 38.9996 36.828 38.999"/></g></g><g id="Accessories" transform="translate(396.000000, 56.000000) scale(1 1)" fill="#000"><g id="Accessories/None" stroke="none" stroke-width="1" fill="none" fill-rule="evenodd" fill-opacity="0"/></g><g id="Glasses" transform="translate(388.000000, 42.000000) scale(1 1)" fill="#000"><g id="Glasses/Thick" stroke="none" stroke-width="1" fill="none" fill-rule="evenodd"><path d="M43.5452664,3.00012344 C49.2894512,3.02462661 55.021427,4.35163303 57.0857956,6.97405047 C58.0938547,8.25461237 58.6772219,10.0147386 58.9068842,11.9996703 L62.1143968,11.9996703 C62.3440591,10.0147386 62.9274264,8.25461237 63.9354854,6.97405047 C65.9529365,4.41123343 71.4731799,3.0856142 77.0844275,3.00401411 L77.4760146,3.00012344 L77.8967218,3.00012344 L80.8146938,3.0378718 C91.0822714,3.2070925 94.9796428,3.73089949 95.893837,5.69362755 C96.9046181,7.86372269 97.4724619,10.8486323 96.5699433,12.3975628 L96.4345265,12.6077971 C96.2607766,12.8804731 95.8187885,13.7026763 95.3317143,14.6775352 L95.2267324,14.8886255 L94.7966033,15.7746065 C94.1772527,17.0747485 93.6217104,18.3482986 93.2115536,19.4320065 L93.1438986,19.6872046 L93.1438986,19.6872046 C92.2530855,22.9637972 90.4857872,26.1972123 88.6985341,28.3365739 C85.3492115,32.34575 71.1131799,32.6082999 67.0329763,28.4576053 C64.4038322,25.7830393 62.5077693,20.7417692 62.087653,15.9998009 L58.933628,15.9998009 C58.5135117,20.7417692 56.6174488,25.7830393 53.9883048,28.4576053 C49.9081011,32.6082999 35.6720695,32.34575 32.3227469,28.3365739 C30.5354938,26.1972123 28.7681955,22.9637972 27.8773824,19.6872046 L27.8097274,19.4320065 C27.4233065,18.4110132 26.9078403,17.2215143 26.331547,16.0000268 L0,16 L0,12 L24.2628445,12.0004643 C23.6422666,10.3774347 24.1973223,7.69055104 25.127444,5.69362755 C26.0970439,3.61194627 30.4223758,3.14888604 42.1443686,3.0107703 L43.1245592,3.00012344 L43.5452664,3.00012344 Z M32.8542992,9.57832836 C31.1333273,11.9393787 30.7976239,14.9040914 31.4059083,17.8533932 L31.6334165,18.4663592 L31.5539327,18.4983688 C32.1949786,21.035914 33.5135424,23.5284501 35.226974,25.5794466 C37.0849603,27.8034767 48.7860935,28.0192764 51.3034638,25.4584151 C54.5060095,22.2005411 56.3804317,12.9591713 54.2303847,9.80770023 L54.1067801,9.63896051 L53.9809214,9.49277664 C51.015179,6.32545056 35.1904568,6.373287 32.8542992,9.57832836 Z M88.1669819,9.57832836 C85.8662205,6.42184823 70.4825425,6.32762495 67.1839305,9.35102137 L67.0403596,9.49277664 L66.9145009,9.63896051 L66.7908963,9.80770023 C64.6408493,12.9591713 66.5152715,22.2005411 69.7178172,25.4584151 C72.2351876,28.0192764 83.9363207,27.8034767 85.794307,25.5794466 C87.4069485,23.6490969 88.669811,21.3276257 89.347247,18.9456229 L89.4673483,18.4983688 L89.3878645,18.4663592 L89.6153727,17.8533932 L89.6153727,17.8533932 C90.2236571,14.9040914 89.8879537,11.9393787 88.1669819,9.57832836 Z" id="Shape" fill="#000"/></g></g></g></g><g id="Desk" transform="translate(171.000000, 207.000000)"><rect id="Rectangle" fill="#BE6FFB" x="290" y="0" width="257" height="217"/><rect id="Rectangle" fill="#CCA4FF" x="290" y="0" width="26" height="217"/><g id="keyboard" transform="translate(185.000000, 258.000000)"><rect id="Rectangle" fill="#C67BFF" x="0" y="0" width="203" height="15"/><rect id="Rectangle" fill="#F2E7FF" x="0" y="0" width="68" height="15"/></g><rect id="Rectangle" fill="#BE6FFB" x="56" y="272" width="520" height="38"/><rect id="Rectangle" fill="#CCA4FF" x="56" y="272" width="174" height="38"/><rect id="Rectangle" fill="#E4CEFF" x="56" y="272" width="257" height="38"/><polygon id="Rectangle" fill="#CCA4FF" points="72 310 106 310 18 700 -6.36626862e-12 700"/><polygon id="Rectangle" fill="#CCA4FF" transform="translate(330.000000, 505.000000) scale(-1, 1) translate(-330.000000, -505.000000)" points="349 310 383 310 295 700 277 700"/><polygon id="Rectangle" fill="#CCA4FF" transform="translate(584.000000, 505.000000) scale(-1, 1) translate(-584.000000, -505.000000)" points="603 310 637 310 549 700 531 700"/><rect id="Rectangle" fill="#870CF7" x="425" y="83" width="63" height="189"/><rect id="Rectangle" fill="#CCA4FF" x="425" y="83" width="18" height="189"/></g></g></svg>