<svg viewBox="38.02702702702703 61.31249999999994 325.94594594594594 442.8125000000001" fill="none" xmlns="http://www.w3.org/2000/svg" xmlns:xlink="http://www.w3.org/1999/xlink" overflow="visible" width="325.94594594594594px" height="442.8125000000001px"><g id="Master/Composition/Wireframe"><g id="UI"><g id="Cards"><g id="Group"><g id="Group 7"><rect id="Rectangle 2" x="214.426" y="171.112" width="44.7" height="61.1583" rx="20" fill="#BAEBFF"/><rect id="Rectangle 2 Copy 9" x="214.426" y="383.042" width="44.7" height="80.2703" rx="20" fill="#B8DBE9"/><rect id="Rectangle 2 Copy 8" x="318.3" y="307.869" width="44.7" height="61.1583" rx="20" fill="#B8DBE9"/><rect id="Rectangle 2 Copy" x="266.363" y="171.112" width="44.7" height="89.6139" rx="20" fill="#8AB8F1"/><rect id="Rectangle 2 Copy 4" x="318.3" y="227.598" width="44.7" height="70.5019" rx="20" fill="#B8DBE9"/><rect id="Rectangle 2 Copy 5" x="266.363" y="270.07" width="44.7" height="47.1429" rx="20" fill="#B8DBE9"/><rect id="Rectangle 2 Copy 2" x="318.3" y="171.112" width="44.7" height="47.1429" rx="20" fill="#B8DBE9"/><rect id="Rectangle 2 Copy 6" x="214.426" y="298.525" width="44.7" height="75.1737" rx="20" fill="#8AB8F1"/><rect id="Rectangle 2 Copy 3" x="214.426" y="241.614" width="44.7" height="47.1429" rx="20" fill="#B8DBE9"/><rect id="Rectangle 2 Copy 12" x="318.3" y="434.857" width="44.7" height="47.1429" rx="20" fill="#8AB8F1"/><path id="Rectangle" fill-rule="evenodd" clip-rule="evenodd" d="M214 154.548C214 153.141 215.141 152 216.548 152H230.609C232.016 152 233.157 153.141 233.157 154.548V154.548C233.157 155.956 232.016 157.097 230.609 157.097H216.548C215.141 157.097 214 155.956 214 154.548V154.548Z" fill="#B8DBE9"/><path id="Rectangle Copy" opacity="0.3" fill-rule="evenodd" clip-rule="evenodd" d="M242.523 154.548C242.523 153.141 243.664 152 245.071 152H259.132C260.539 152 261.68 153.141 261.68 154.548V154.548C261.68 155.956 260.539 157.097 259.132 157.097H245.071C243.664 157.097 242.523 155.956 242.523 154.548V154.548Z" fill="#B8DBE9"/><path id="Rectangle Copy 2" opacity="0.3" fill-rule="evenodd" clip-rule="evenodd" d="M270.62 154.548C270.62 153.141 271.761 152 273.168 152H287.229C288.636 152 289.777 153.141 289.777 154.548V154.548C289.777 155.956 288.636 157.097 287.229 157.097H273.168C271.761 157.097 270.62 155.956 270.62 154.548V154.548Z" fill="#B8DBE9"/><path id="Rectangle Copy 3" opacity="0.3" fill-rule="evenodd" clip-rule="evenodd" d="M299.143 154.548C299.143 153.141 300.284 152 301.691 152H315.752C317.159 152 318.3 153.141 318.3 154.548V154.548C318.3 155.956 317.159 157.097 315.752 157.097H301.691C300.284 157.097 299.143 155.956 299.143 154.548V154.548Z" fill="#B8DBE9"/><path id="Rectangle Copy 4" opacity="0.3" fill-rule="evenodd" clip-rule="evenodd" d="M327.24 154.548C327.24 153.141 328.381 152 329.788 152H343.849C345.256 152 346.397 153.141 346.397 154.548V154.548C346.397 155.956 345.256 157.097 343.849 157.097H329.788C328.381 157.097 327.24 155.956 327.24 154.548V154.548Z" fill="#B8DBE9"/></g></g></g><g id="Profile"><g id="Group 6"><path id="Rectangle_2" fill-rule="evenodd" clip-rule="evenodd" d="M89.8882 86.6077C89.8882 73.6092 100.426 63 113.424 63V63C126.422 63 136.96 73.6092 136.96 86.6077V86.6077C136.96 99.6061 126.422 110.215 113.424 110.215V110.215C100.426 110.215 89.8882 99.6061 89.8882 86.6077V86.6077Z" fill="#B8DBE9"/><path id="Shape" fill-rule="evenodd" clip-rule="evenodd" d="M110.482 82.201C110.482 81.5053 111.051 80.9419 111.753 80.9419H115.566C116.268 80.9419 116.837 81.5053 116.837 82.201V82.8305H118.743C119.445 82.8305 120.014 83.3939 120.014 84.0896V91.0145C120.014 91.7101 119.445 92.2736 118.743 92.2736H108.576C107.873 92.2736 107.305 91.7101 107.305 91.0145V84.0896C107.305 83.3939 107.873 82.8305 108.576 82.8305H110.482V82.201ZM117.19 87.316C117.19 85.6237 115.712 84.247 113.895 84.247C112.078 84.247 110.6 85.6237 110.6 87.316C110.6 89.0082 112.078 90.385 113.895 90.385C115.712 90.385 117.19 89.0082 117.19 87.316ZM117.896 84.247C118.286 84.247 118.602 84.5643 118.602 84.9552C118.602 85.3461 118.286 85.6634 117.896 85.6634C117.506 85.6634 117.19 85.3461 117.19 84.9552C117.19 84.5643 117.506 84.247 117.896 84.247ZM112.012 87.0799C112.012 86.0368 112.855 85.1913 113.895 85.1913C114.935 85.1913 115.778 86.0368 115.778 87.0799C115.778 88.1229 114.935 88.9685 113.895 88.9685C112.855 88.9685 112.012 88.1229 112.012 87.0799Z" fill="#70A2DE"/><path id="Rectangle_3" fill-rule="evenodd" clip-rule="evenodd" d="M75.894 126.592C75.894 125.3 76.9415 124.252 78.2335 124.252H92.3196C93.6117 124.252 94.6591 125.3 94.6591 126.592V126.592C94.6591 127.884 93.6117 128.931 92.3196 128.931H78.2335C76.9415 128.931 75.894 127.884 75.894 126.592V126.592Z" fill="#8AB8F1"/><path id="Rectangle Copy_2" opacity="0.3" fill-rule="evenodd" clip-rule="evenodd" d="M104.042 126.592C104.042 125.3 105.089 124.252 106.381 124.252H120.467C121.759 124.252 122.807 125.3 122.807 126.592V126.592C122.807 127.884 121.759 128.931 120.467 128.931H106.381C105.089 128.931 104.042 127.884 104.042 126.592V126.592Z" fill="#B8DBE9"/><path id="Rectangle Copy 2_2" opacity="0.3" fill-rule="evenodd" clip-rule="evenodd" d="M132.189 126.592C132.189 125.3 133.237 124.252 134.529 124.252H148.615C149.907 124.252 150.954 125.3 150.954 126.592V126.592C150.954 127.884 149.907 128.931 148.615 128.931H134.529C133.237 128.931 132.189 127.884 132.189 126.592V126.592Z" fill="#B8DBE9"/><path id="Rectangle_4" fill-rule="evenodd" clip-rule="evenodd" d="M172.905 178.507C172.905 177.203 173.961 176.147 175.265 176.147H184.64C185.943 176.147 187 177.203 187 178.507V178.507C187 179.81 185.943 180.867 184.64 180.867H175.265C173.961 180.867 172.905 179.81 172.905 178.507V178.507Z" fill="#B8DBE9"/><path id="Rectangle_5" fill-rule="evenodd" clip-rule="evenodd" d="M168.206 192.667C168.206 191.364 169.263 190.307 170.566 190.307H184.64C185.943 190.307 187 191.364 187 192.667V192.667C187 193.971 185.943 195.027 184.64 195.027H170.566C169.263 195.027 168.206 193.971 168.206 192.667V192.667Z" fill="#B8DBE9"/><path id="Rectangle_6" fill-rule="evenodd" clip-rule="evenodd" d="M177.603 206.828C177.603 205.524 178.66 204.468 179.963 204.468H184.64C185.943 204.468 187 205.524 187 206.828V206.828C187 208.131 185.943 209.188 184.64 209.188H179.963C178.66 209.188 177.603 208.131 177.603 206.828V206.828Z" fill="#B8DBE9"/><path id="Rectangle_7" fill-rule="evenodd" clip-rule="evenodd" d="M182.302 220.988C182.302 219.691 183.353 218.628 184.651 218.628V218.628C185.948 218.628 187 219.691 187 220.988V220.988C187 222.286 185.948 223.348 184.651 223.348V223.348C183.353 223.348 182.302 222.286 182.302 220.988V220.988Z" fill="#B8DBE9"/><path id="Rectangle_8" fill-rule="evenodd" clip-rule="evenodd" d="M172.905 235.149C172.905 233.845 173.961 232.789 175.265 232.789H184.64C185.943 232.789 187 233.845 187 235.149V235.149C187 236.452 185.943 237.509 184.64 237.509H175.265C173.961 237.509 172.905 236.452 172.905 235.149V235.149Z" fill="#B8DBE9"/><path id="Rectangle_9" fill-rule="evenodd" clip-rule="evenodd" d="M177.603 249.309C177.603 248.006 178.66 246.949 179.963 246.949H184.64C185.943 246.949 187 248.006 187 249.309V249.309C187 250.612 185.943 251.669 184.64 251.669H179.963C178.66 251.669 177.603 250.612 177.603 249.309V249.309Z" fill="#B8DBE9"/><path id="Rectangle_10" fill-rule="evenodd" clip-rule="evenodd" d="M182.302 263.47C182.302 262.172 183.353 261.11 184.651 261.11V261.11C185.948 261.11 187 262.172 187 263.47V263.47C187 264.767 185.948 265.83 184.651 265.83V265.83C183.353 265.83 182.302 264.767 182.302 263.47V263.47Z" fill="#8AB8F1"/><path id="Rectangle_11" fill-rule="evenodd" clip-rule="evenodd" d="M39 320.112C39 318.808 40.0566 317.751 41.3601 317.751H121.211C122.515 317.751 123.571 318.808 123.571 320.112V320.112C123.571 321.415 122.515 322.472 121.211 322.472H41.3601C40.0566 322.472 39 321.415 39 320.112V320.112Z" fill="#B8DBE9"/><path id="Rectangle_12" fill-rule="evenodd" clip-rule="evenodd" d="M177.603 277.63C177.603 276.327 178.66 275.27 179.963 275.27H184.64C185.943 275.27 187 276.327 187 277.63V277.63C187 278.934 185.943 279.99 184.64 279.99H179.963C178.66 279.99 177.603 278.934 177.603 277.63V277.63Z" fill="#8AB8F1"/><path id="Rectangle_13" fill-rule="evenodd" clip-rule="evenodd" d="M172.905 291.79C172.905 290.487 173.961 289.43 175.265 289.43H184.64C185.943 289.43 187 290.487 187 291.79V291.79C187 293.094 185.943 294.151 184.64 294.151H175.265C173.961 294.151 172.905 293.094 172.905 291.79V291.79Z" fill="#B8DBE9"/><path id="Rectangle_14" fill-rule="evenodd" clip-rule="evenodd" d="M39 305.951C39 304.648 40.0566 303.591 41.3601 303.591H74.2272C75.5307 303.591 76.5873 304.648 76.5873 305.951V305.951C76.5873 307.255 75.5307 308.311 74.2272 308.311H41.3601C40.0566 308.311 39 307.255 39 305.951V305.951Z" fill="#BAEBFF"/><path id="Rectangle_15" fill-rule="evenodd" clip-rule="evenodd" d="M39 291.79C39 290.487 40.0566 289.43 41.3601 289.43H60.132C61.4354 289.43 62.4921 290.487 62.4921 291.79V291.79C62.4921 293.094 61.4354 294.151 60.132 294.151H41.3601C40.0566 294.151 39 293.094 39 291.79V291.79Z" fill="#8AB8F1"/><path id="Rectangle_16" fill-rule="evenodd" clip-rule="evenodd" d="M39 277.63C39 276.327 40.0566 275.27 41.3601 275.27H55.4336C56.737 275.27 57.7937 276.327 57.7937 277.63V277.63C57.7937 278.934 56.737 279.99 55.4336 279.99H41.3601C40.0566 279.99 39 278.934 39 277.63V277.63Z" fill="#B8DBE9"/><path id="Rectangle_17" fill-rule="evenodd" clip-rule="evenodd" d="M39 206.828C39 205.524 40.0566 204.468 41.3601 204.468H74.2272C75.5307 204.468 76.5873 205.524 76.5873 206.828V206.828C76.5873 208.131 75.5307 209.188 74.2272 209.188H41.3601C40.0566 209.188 39 208.131 39 206.828V206.828Z" fill="#B8DBE9"/><path id="Rectangle_18" fill-rule="evenodd" clip-rule="evenodd" d="M39 192.667C39 191.364 40.0566 190.307 41.3601 190.307H93.0209C94.3243 190.307 95.381 191.364 95.381 192.667V192.667C95.381 193.971 94.3243 195.027 93.0209 195.027H41.3601C40.0566 195.027 39 193.971 39 192.667V192.667Z" fill="#BAEBFF"/><path id="Rectangle_19" fill-rule="evenodd" clip-rule="evenodd" d="M39 178.507C39 177.203 40.0566 176.147 41.3601 176.147H60.132C61.4354 176.147 62.4921 177.203 62.4921 178.507V178.507C62.4921 179.81 61.4354 180.867 60.132 180.867H41.3601C40.0566 180.867 39 179.81 39 178.507V178.507Z" fill="#B8DBE9"/><rect id="Rectangle 2_2" x="39" y="148.073" width="148" height="18.716" rx="9.35799" fill="#8AB8F1"/><rect id="Rectangle 2_3" x="39" y="361.18" width="68.2751" height="23.8203" rx="11.9102" fill="#B8DBE9"/></g></g></g><g id="Character"><g id="Head/Front" transform="rotate(-27 69.7224 108.199) translate(69.7224 108.199) scale(1.0808823529411764 1.0288461538461537)"><g id="Head/Front/Caesar"><g id="Head"><path id="SKIN" fill-rule="evenodd" clip-rule="evenodd" d="M73.9354 75.2443C80.411 79.1475 86.7736 81.0333 89.7603 80.2635C97.2496 78.333 97.9382 50.9351 92.1433 40.1339C86.3485 29.3328 56.5583 24.625 55.0568 46.0255C54.5356 53.4529 57.6544 60.0814 62.2623 65.4901L54 104H78L73.9354 75.2443Z" fill="#57331f"/></g><path id="Combined Shape" fill-rule="evenodd" clip-rule="evenodd" d="M63 41C76.8493 41.0992 86.4854 40.5156 92 39C91.7486 34.3062 86.8691 29 74 29C59.682 29 52 37.3455 52 47C52 55.8205 57.6781 66.5628 62 67C63.1187 66.7553 64.0738 65.4091 65.0235 63.5535C63.245 62.7108 62 60.7653 62 58.5C62 55.4624 64.2386 53 67 53C68.0028 53 68.9367 53.3247 69.7194 53.8838C71.5356 50.9533 73.812 48.762 77 49L75 43L63 42V41Z" fill="#2c1b18"/></g></g><g id="Lower Body/Standing" transform="translate(44 252) scale(1.08 1.0376569037656904)"><g id="Lower Body/Standing/Skinny Jeans Walk"><path id="Leg" fill-rule="evenodd" clip-rule="evenodd" d="M128 0L176.082 127.227L209.783 221H229L182.674 0L128 0Z" fill="#191847"/><path id="Leg" fill-rule="evenodd" clip-rule="evenodd" d="M116.117 0C115.594 43.6542 115.972 102.427 114.754 105.149C113.536 107.87 39 167.157 39 167.157L48.905 184C48.905 184 137.397 126.934 141.921 119.331C146.445 111.728 169.174 41.7631 181 0H116.117Z" fill="#393f82"/><path id="Shoe" fill-rule="evenodd" clip-rule="evenodd" d="M21.5742 178.491L38.3039 165.759L51.8025 181.846C53.3599 200.037 63.8484 222.649 63.8484 222.649L60.7842 225.22L36.3583 196.11L29.5342 184.866L28.0021 186.152L21.5742 178.491Z" fill="#191847"/><path id="Shoe_2" fill-rule="evenodd" clip-rule="evenodd" d="M208 239L209 218L230 218C244.936 228.5 269 235 269 235V239H231L218 237V239H208Z" fill="#191847"/></g></g><g id="Upper Body" transform="rotate(-14 40.7686 185.373) translate(40.7686 185.373) scale(1.08203125 1.032085561497326)"><g id="Upper Body/Hoodie"><path id="SKIN" fill-rule="evenodd" clip-rule="evenodd" d="M222.68 115.635L190.781 92.2115L183.73 109.642L215.318 122.741C224.251 133.235 229.246 137.61 230.304 135.865C231.195 134.394 230.499 133.017 229.857 131.749C229.357 130.76 228.89 129.838 229.233 128.989C230.018 127.049 236.019 127.254 241.705 127.691C247.392 128.128 245.735 125.598 244.364 124.349C238.559 120.874 231.331 117.97 222.68 115.635ZM55.398 156.908C58.3285 150.963 68.308 93.0199 68.308 93.0199L89.2054 93.1021C89.2054 93.1021 69.8506 155.583 68.308 159.406C66.3041 164.372 69.708 171.587 72.0162 176.48C72.3733 177.237 72.7041 177.938 72.9847 178.567C69.782 180 68.2435 178.268 66.6216 176.442C64.7896 174.379 62.8512 172.197 58.288 174.319C56.525 175.14 54.8568 176.109 53.2269 177.057C47.5969 180.329 42.4249 183.336 35.3891 178.994C34.2737 178.306 33.0514 175.715 36.0047 173.69C43.3624 168.645 53.9654 159.815 55.398 156.908Z" fill="#57331f"/><path id="Coat Back" fill-rule="evenodd" clip-rule="evenodd" d="M127.695 5.33203L136.342 3.84886C168.425 31.5643 181.603 84.8089 220.929 113.015L211.464 124.748C143.24 116.3 126.33 51.3548 127.695 5.33203Z" fill="#77d692"/><path id="Shirt" fill-rule="evenodd" clip-rule="evenodd" d="M90 114C90 114 142.008 114 166.511 114C170.008 114 169.349 108.952 168.843 106.404C163.011 77.0038 140.241 45.3115 140.241 3.46073L118.172 0C99.9175 29.3584 93.6048 65.5046 90 114Z" fill="#C7D1D9"/><path id="Coat Front" fill-rule="evenodd" clip-rule="evenodd" d="M81.3968 135C77.9582 143.259 74.5862 150.465 71.4089 156H54.9999C53.2345 98.9186 74.8454 54.9964 92.9315 28.5129C88.9158 28.2259 85.2911 26.5455 82.9999 22.4112C74.9335 7.85608 77.8467 -0.157593 86.4671 -2.79173C91.2074 -4.24021 95.6656 -3.25154 101.002 -2.06804C105.369 -1.09961 110.325 -0.000719281 116.504 2.76336e-08C116.506 2.76336e-08 116.508 2.76336e-08 116.51 2.76336e-08C117.109 2.76336e-08 117.654 0.0401216 118.148 0.116866L125.472 0.53474C125.472 0.53474 155.205 101.305 141.872 135H81.3968Z" fill="#a8e5ba"/><path id="Shade" fill-rule="evenodd" clip-rule="evenodd" d="M81.397 135C85.9087 124.164 90.5352 111.516 94.9874 98.4544C96.6448 112.839 99.4048 127.286 104 135H81.397Z" fill="black" fill-opacity="0.1"/></g></g></g><g id="Foreground"><rect id="Rectangle 2 Copy 7" opacity="0.905855" x="267" y="326" width="44" height="61" rx="20" fill="#B8DBE9"/><rect id="Rectangle 2 Copy 10" opacity="0.865792" x="267" y="397" width="44" height="61" rx="20" fill="#6DD2FC"/><rect id="Rectangle 2 Copy 11" x="319" y="378" width="44" height="47" rx="20" fill="#BAEBFF"/><path id="Rectangle_20" fill-rule="evenodd" clip-rule="evenodd" d="M182 319.5C182 318.119 183.119 317 184.5 317V317C185.881 317 187 318.119 187 319.5V319.5C187 320.881 185.881 322 184.5 322V322C183.119 322 182 320.881 182 319.5V319.5Z" fill="#B8DBE9"/><path id="Rectangle_21" fill-rule="evenodd" clip-rule="evenodd" d="M173 305.5C173 304.119 174.119 303 175.5 303H184.5C185.881 303 187 304.119 187 305.5V305.5C187 306.881 185.881 308 184.5 308H175.5C174.119 308 173 306.881 173 305.5V305.5Z" fill="#B8DBE9"/><path id="Rectangle_22" opacity="0.890044" fill-rule="evenodd" clip-rule="evenodd" d="M39 263.5C39 262.119 40.1193 261 41.5 261H120.5C121.881 261 123 262.119 123 263.5V263.5C123 264.881 121.881 266 120.5 266H41.5C40.1193 266 39 264.881 39 263.5V263.5Z" fill="#B8DBE9"/><path id="Rectangle_23" fill-rule="evenodd" clip-rule="evenodd" d="M39 249.5C39 248.119 40.1193 247 41.5 247H69.5C70.8807 247 72 248.119 72 249.5V249.5C72 250.881 70.8807 252 69.5 252H41.5C40.1193 252 39 250.881 39 249.5V249.5Z" fill="#B8DBE9"/><path id="Rectangle_24" fill-rule="evenodd" clip-rule="evenodd" d="M39 234.5C39 233.119 40.1193 232 41.5 232H55.5C56.8807 232 58 233.119 58 234.5V234.5C58 235.881 56.8807 237 55.5 237H41.5C40.1193 237 39 235.881 39 234.5V234.5Z" fill="#B8DBE9"/><path id="Rectangle_25" opacity="0.890044" fill-rule="evenodd" clip-rule="evenodd" d="M39 220.5C39 219.119 40.1193 218 41.5 218H106.5C107.881 218 109 219.119 109 220.5V220.5C109 221.881 107.881 223 106.5 223H41.5C40.1193 223 39 221.881 39 220.5V220.5Z" fill="#8AB8F1"/><rect id="Rectangle 2_4" opacity="0.908343" x="119" y="361" width="68" height="24" rx="12" fill="#77D6FE"/></g></g></svg>