<svg id="visual" viewBox="0 0 1900 1280" width="1900" height="1280" xmlns="http://www.w3.org/2000/svg" xmlns:xlink="http://www.w3.org/1999/xlink" version="1.1"><rect x="0" y="0" width="1900" height="1280" fill="#0066FF"></rect><path d="M0 891L45.2 876.3C90.3 861.7 180.7 832.3 271.2 815.2C361.7 798 452.3 793 542.8 784.5C633.3 776 723.7 764 814.2 781C904.7 798 995.3 844 1085.8 874.2C1176.3 904.3 1266.7 918.7 1357.2 906.7C1447.7 894.7 1538.3 856.3 1628.8 829.8C1719.3 803.3 1809.7 788.7 1854.8 781.3L1900 774L1900 1281L1854.8 1281C1809.7 1281 1719.3 1281 1628.8 1281C1538.3 1281 1447.7 1281 1357.2 1281C1266.7 1281 1176.3 1281 1085.8 1281C995.3 1281 904.7 1281 814.2 1281C723.7 1281 633.3 1281 542.8 1281C452.3 1281 361.7 1281 271.2 1281C180.7 1281 90.3 1281 45.2 1281L0 1281Z" fill="#83b5ff"></path><path d="M0 1015L45.2 1000.3C90.3 985.7 180.7 956.3 271.2 951.8C361.7 947.3 452.3 967.7 542.8 954.2C633.3 940.7 723.7 893.3 814.2 898C904.7 902.7 995.3 959.3 1085.8 979.3C1176.3 999.3 1266.7 982.7 1357.2 968.8C1447.7 955 1538.3 944 1628.8 927.2C1719.3 910.3 1809.7 887.7 1854.8 876.3L1900 865L1900 1281L1854.8 1281C1809.7 1281 1719.3 1281 1628.8 1281C1538.3 1281 1447.7 1281 1357.2 1281C1266.7 1281 1176.3 1281 1085.8 1281C995.3 1281 904.7 1281 814.2 1281C723.7 1281 633.3 1281 542.8 1281C452.3 1281 361.7 1281 271.2 1281C180.7 1281 90.3 1281 45.2 1281L0 1281Z" fill="#a7c7ff"></path><path d="M0 1092L45.2 1079.8C90.3 1067.7 180.7 1043.3 271.2 1037.3C361.7 1031.3 452.3 1043.7 542.8 1033.5C633.3 1023.3 723.7 990.7 814.2 976.7C904.7 962.7 995.3 967.3 1085.8 982.7C1176.3 998 1266.7 1024 1357.2 1022.5C1447.7 1021 1538.3 992 1628.8 992.8C1719.3 993.7 1809.7 1024.3 1854.8 1039.7L1900 1055L1900 1281L1854.8 1281C1809.7 1281 1719.3 1281 1628.8 1281C1538.3 1281 1447.7 1281 1357.2 1281C1266.7 1281 1176.3 1281 1085.8 1281C995.3 1281 904.7 1281 814.2 1281C723.7 1281 633.3 1281 542.8 1281C452.3 1281 361.7 1281 271.2 1281C180.7 1281 90.3 1281 45.2 1281L0 1281Z" fill="#c6d9ff"></path><path d="M0 1132L45.2 1125.2C90.3 1118.3 180.7 1104.7 271.2 1106.7C361.7 1108.7 452.3 1126.3 542.8 1128.7C633.3 1131 723.7 1118 814.2 1104.2C904.7 1090.3 995.3 1075.7 1085.8 1084.3C1176.3 1093 1266.7 1125 1357.2 1139.3C1447.7 1153.7 1538.3 1150.3 1628.8 1145.3C1719.3 1140.3 1809.7 1133.7 1854.8 1130.3L1900 1127L1900 1281L1854.8 1281C1809.7 1281 1719.3 1281 1628.8 1281C1538.3 1281 1447.7 1281 1357.2 1281C1266.7 1281 1176.3 1281 1085.8 1281C995.3 1281 904.7 1281 814.2 1281C723.7 1281 633.3 1281 542.8 1281C452.3 1281 361.7 1281 271.2 1281C180.7 1281 90.3 1281 45.2 1281L0 1281Z" fill="#e3ecff"></path><path d="M0 1177L45.2 1180C90.3 1183 180.7 1189 271.2 1179.5C361.7 1170 452.3 1145 542.8 1136.3C633.3 1127.7 723.7 1135.3 814.2 1150.3C904.7 1165.3 995.3 1187.7 1085.8 1191.3C1176.3 1195 1266.7 1180 1357.2 1167.3C1447.7 1154.7 1538.3 1144.3 1628.8 1137.2C1719.3 1130 1809.7 1126 1854.8 1124L1900 1122L1900 1281L1854.8 1281C1809.7 1281 1719.3 1281 1628.8 1281C1538.3 1281 1447.7 1281 1357.2 1281C1266.7 1281 1176.3 1281 1085.8 1281C995.3 1281 904.7 1281 814.2 1281C723.7 1281 633.3 1281 542.8 1281C452.3 1281 361.7 1281 271.2 1281C180.7 1281 90.3 1281 45.2 1281L0 1281Z" fill="#ffffff"></path></svg>