<svg id="visual" viewBox="0 0 900 600" width="900" height="600" xmlns="http://www.w3.org/2000/svg" xmlns:xlink="http://www.w3.org/1999/xlink" version="1.1"><rect x="0" y="0" width="900" height="600" fill="#0066FF"></rect><path d="M0 417L21.5 410.2C43 403.3 86 389.7 128.8 381.7C171.7 373.7 214.3 371.3 257.2 367.3C300 363.3 343 357.7 385.8 365.7C428.7 373.7 471.3 395.3 514.2 409.5C557 423.7 600 430.3 642.8 424.7C685.7 419 728.3 401 771.2 388.5C814 376 857 369 878.5 365.5L900 362L900 601L878.5 601C857 601 814 601 771.2 601C728.3 601 685.7 601 642.8 601C600 601 557 601 514.2 601C471.3 601 428.7 601 385.8 601C343 601 300 601 257.2 601C214.3 601 171.7 601 128.8 601C86 601 43 601 21.5 601L0 601Z" fill="#83b5ff"></path><path d="M0 475L21.5 468.2C43 461.3 86 447.7 128.8 445.5C171.7 443.3 214.3 452.7 257.2 446.3C300 440 343 418 385.8 420.3C428.7 422.7 471.3 449.3 514.2 458.7C557 468 600 460 642.8 453.5C685.7 447 728.3 442 771.2 434.2C814 426.3 857 415.7 878.5 410.3L900 405L900 601L878.5 601C857 601 814 601 771.2 601C728.3 601 685.7 601 642.8 601C600 601 557 601 514.2 601C471.3 601 428.7 601 385.8 601C343 601 300 601 257.2 601C214.3 601 171.7 601 128.8 601C86 601 43 601 21.5 601L0 601Z" fill="#a7c7ff"></path><path d="M0 511L21.5 505.3C43 499.7 86 488.3 128.8 485.5C171.7 482.7 214.3 488.3 257.2 483.7C300 479 343 464 385.8 457.5C428.7 451 471.3 453 514.2 460.2C557 467.3 600 479.7 642.8 479C685.7 478.3 728.3 464.7 771.2 465C814 465.3 857 479.7 878.5 486.8L900 494L900 601L878.5 601C857 601 814 601 771.2 601C728.3 601 685.7 601 642.8 601C600 601 557 601 514.2 601C471.3 601 428.7 601 385.8 601C343 601 300 601 257.2 601C214.3 601 171.7 601 128.8 601C86 601 43 601 21.5 601L0 601Z" fill="#c6d9ff"></path><path d="M0 530L21.5 526.8C43 523.7 86 517.3 128.8 518.3C171.7 519.3 214.3 527.7 257.2 528.7C300 529.7 343 523.3 385.8 516.8C428.7 510.3 471.3 503.7 514.2 507.8C557 512 600 527 642.8 533.7C685.7 540.3 728.3 538.7 771.2 536.3C814 534 857 531 878.5 529.5L900 528L900 601L878.5 601C857 601 814 601 771.2 601C728.3 601 685.7 601 642.8 601C600 601 557 601 514.2 601C471.3 601 428.7 601 385.8 601C343 601 300 601 257.2 601C214.3 601 171.7 601 128.8 601C86 601 43 601 21.5 601L0 601Z" fill="#e3ecff"></path><path d="M0 551L21.5 552.5C43 554 86 557 128.8 552.7C171.7 548.3 214.3 536.7 257.2 532.5C300 528.3 343 531.7 385.8 538.7C428.7 545.7 471.3 556.3 514.2 558.2C557 560 600 553 642.8 547C685.7 541 728.3 536 771.2 532.7C814 529.3 857 527.7 878.5 526.8L900 526L900 601L878.5 601C857 601 814 601 771.2 601C728.3 601 685.7 601 642.8 601C600 601 557 601 514.2 601C471.3 601 428.7 601 385.8 601C343 601 300 601 257.2 601C214.3 601 171.7 601 128.8 601C86 601 43 601 21.5 601L0 601Z" fill="#ffffff"></path></svg>