<svg viewBox="57.312499999999886 246.82500000000027 1064.3750000000002 2838.4874999999997" xmlns="http://www.w3.org/2000/svg" overflow="visible" xmlns:xlink="http://www.w3.org/1999/xlink" width="1064.3750000000002px" height="2838.4874999999997px"><g id="Master/Character/Standing" stroke="none" stroke-width="1" fill="none" fill-rule="evenodd"><g id="Standing" transform="translate(-121.000000, 634.000000) scale(1 1)"><g id="Standing/Walking 3" stroke="none" stroke-width="1" fill="none" fill-rule="evenodd"><path d="M1212.2357,2373.58532 C1219.2727,2340.82632 1187.0867,2329.7518 1166.7957,2322.4638 C1152.26173,2313.03627 1098.40935,2280.38782 1056.7407,2240.0839 C1022.6436,2207.10355 999.432131,2164.83502 989.769919,2160.80587 C983.139681,2156.9608 979.480275,2153.60961 978.7917,2150.75231 C972.739579,2125.63853 977.78714,2102.23281 978.7917,2087.0078 C998.1897,2081.9148 1013.7337,2075.5618 1025.3587,2066.6778 C1028.7487,2067.8078 1033.8307,2069.2538 1035.3457,2064.2958 C1045.8517,1994.1998 1050.3867,1924.9328 1058.9347,1854.7828 C1091.2907,1587.6018 1094.9407,1275.4658 1039.2757,1031.4358 C1038.6907,1019.3398 1039.7457,1008.4158 1040.8247,998.0228 C1048.3517,997.2098 1052.9027,989.9238 1059.0487,985.5688 C1068.5877,977.9878 1079.8827,972.1618 1079.4167,958.9118 C1081.6827,957.1958 1081.4187,956.2308 1080.3017,954.0448 C1087.5777,922.7548 1055.1227,889.7828 1045.9437,863.9868 C1062.6287,700.7928 1039.9267,546.5778 1052.5917,383.3448 C1068.5887,376.6508 1057.8337,334.8128 1056.7407,317.5558 C1047.8787,206.3818 990.0877,96.4638 886.0177,60.1448 C880.0687,58.9388 871.1267,52.1388 866.2037,56.7048 C856.6897,52.9358 844.0317,60.3668 836.6687,51.8118 L836.7427,51.7558 C830.5427,43.1588 827.7637,32.2298 825.7257,21.8958 C826.0667,24.8078 826.6357,27.6958 827.3367,30.5188 C809.3957,-20.0452 804.8757,-33.5652 747.1187,-35.9462 C721.1017,-36.2942 686.8057,-35.5132 671.6357,-10.6992 C665.4197,0.8358 667.3187,14.0808 663.4607,26.2228 C656.3787,48.5038 625.8087,37.7368 609.7597,49.3068 C481.3117,90.5048 375.9527,174.5968 341.3217,309.5698 C334.2417,325.8378 326.2117,342.0288 320.2927,358.8178 C319.3767,361.3098 316.8567,369.7428 322.9087,373.6238 L325.8357,375.5008 C287.2817,555.7018 284.7237,707.5458 414.2507,827.6788 C423.9707,879.2998 398.9657,949.7948 408.5777,999.9148 C403.1007,1007.6858 410.0457,1013.9448 417.0477,1014.4438 C417.7227,1014.8188 420.4507,1016.0128 421.1947,1016.3538 C410.0517,1173.6638 456.8357,1385.6698 477.4577,1469.3468 C480.2647,1519.5868 463.1177,1560.8578 427.8437,1588.2378 C388.8707,1612.2418 311.8207,1720.6548 326.1047,1834.3748 C309.4117,1837.6498 292.8397,1839.4458 276.8247,1845.7198 C206.7507,1833.3518 207.4457,1968.4408 202.9807,2015.9398 C195.4187,2095.4698 190.7187,2210.7408 266.2717,2261.6488 C286.1757,2276.0888 326.5337,2292.9928 347.2147,2269.8818 C353.9917,2261.7408 355.6887,2253.8768 353.0227,2245.5628 C387.1727,2197.3138 377.9697,2134.2028 381.1067,2077.6128 C391.0097,2077.0158 401.3707,2081.6608 410.9497,2079.9688 C420.7817,2071.3048 384.9137,2073.6658 381.1937,2073.1578 C381.5747,2064.4308 382.2767,2055.2418 383.1827,2046.4438 C388.8087,2047.5708 396.0157,2050.2708 401.4257,2050.4778 C404.6277,2051.2568 406.8907,2046.8478 404.9577,2044.5628 C400.7357,2040.5358 389.9707,2041.1598 383.9127,2040.5878 C384.9357,2033.2228 386.1867,2025.4798 387.5767,2018.3568 C394.9877,2018.0898 402.6407,2022.8118 409.6577,2021.8458 C404.3467,2018.3018 394.3777,2019.3808 387.9037,2017.0398 C392.1137,1994.0988 400.6917,1972.3218 408.6667,1950.8638 C428.2347,1958.9358 445.1157,1959.2538 464.2187,1956.8338 C472.0327,1958.0358 475.8427,1956.4368 477.1077,1946.6628 L476.6087,1946.0458 C491.7497,1855.4438 540.6077,1769.0708 631.3607,1671.1208 C649.2867,1651.0588 669.5437,1627.4378 683.0407,1601.0278 C710.1617,1546.0658 714.7937,1485.4168 735.6907,1428.3378 C755.2007,1370.9658 781.8777,1316.0868 806.9247,1261.6998 C810.5977,1289.5738 815.5317,1318.1678 820.6607,1345.4988 C843.2347,1442.3518 841.0467,1545.6878 824.4337,1643.0778 C799.8537,1779.4808 811.7017,1916.5308 806.2347,2053.8988 C806.3097,2061.8218 807.2917,2069.0188 806.1297,2077.2678 C805.9757,2077.9028 806.2757,2078.6548 807.0277,2078.6348 L808.4467,2078.6738 C820.2607,2087.3248 836.5767,2088.8878 850.4587,2093.5808 C856.2887,2098.1948 854.6467,2105.5028 855.1807,2111.2048 C856.7057,2135.7758 858.6557,2160.4408 856.2357,2185.7668 C845.5237,2206.2918 832.2207,2202.0518 829.4997,2230.9848 C827.1177,2264.0168 822.9037,2299.1428 838.9897,2328.5558 L832.9037,2329.6058 C823.8717,2348.5588 829.3857,2360.8648 850.6137,2368.8808 C955.4117,2409.9708 1102.8777,2447.2768 1212.2357,2416.2618 C1214.22355,2418.23282 1217.11434,2416.18791 1219.37454,2413.09017 C1221.54641,2410.11351 1223.13601,2406.16469 1222.7827,2403.8728 C1220.9127,2393.8128 1223.4837,2375.44432 1212.2357,2373.58532 Z" id="Skin" fill="#694d3d"/><path d="M1025,2417 C1006.17345,2413.60653 898,2389 836,2357 C823.337201,2350.46436 826.453847,2335.02054 830.579846,2324.99335 C832.470122,2320.39952 836.942581,2316.94258 836,2316 C816.176593,2296.17659 831,2244 831,2234 C831,2219.13541 855.093164,2199.0112 851,2191 C846.274671,2181.75152 852.084665,2213.3843 864,2231 C874.38525,2246.35361 890.685719,2247.54141 892.302419,2246.86778 L892.594569,2246.74297 L892.803077,2246.63168 C897.286657,2244.17704 964.991277,2146.64411 993,2161 C1006.18145,2167.75616 1013.26331,2197.6335 1028,2210 C1061.04763,2237.73237 1077,2282 1200,2339 C1213.16526,2345.10097 1213.2807,2358.15097 1210.59633,2368.3596 C1209.60685,2372.12257 1223,2372 1221,2374 C1215.91853,2379.08147 1230.01454,2408.27842 1219,2413 C1175.66538,2431.57618 1063.14852,2423.87625 1025,2417 Z M322.021086,1836 C326.759548,1841.93152 329.085853,1846.26485 329,1849 C327.939146,1882.79739 319.900115,1907.69348 319.649215,1924.31251 L319.633569,1925.43497 L319.661551,1925.84629 C320.147908,1932.58821 330.44517,1958.48206 353,1964 C361.49265,1966.07769 378.159317,1962.41102 403,1953 C388.808873,1992.20139 380.47554,2029.53472 378,2065 C375.08376,2106.77888 377.43731,2154.16105 372,2191 C369.031856,2211.10982 358.283328,2233.48744 346,2249 C342.989812,2252.80155 356.07563,2259.99824 353,2263 C347.240042,2268.62161 333,2288 289,2273 C276.192362,2268.63376 238.928067,2244.37235 218,2198 C202.712636,2164.1263 201.274284,2114.77833 199,2071 C196.486574,2022.61837 205.826056,1947.11852 218,1906 C231.537429,1860.2762 248.368812,1851.34204 251.856639,1848.80951 C252.67153,1848.21782 278.007946,1843.21415 280.447377,1842.94164 L280.873266,1842.89597 L281.209569,1842.86297 L281.395146,1842.79065 C291.342373,1838.94111 302.714613,1837.08685 317.669945,1836.22818 L318.590072,1836.17685 L322.021086,1836 Z" id="Shoes" fill="#FFF"/><path d="M1216.7295,2406.4866 C1122.5585,2448.7746 951.5585,2395.4176 859.0285,2364.5456 C834.0795,2355.5446 825.7685,2353.7806 832.7585,2325.0166 C845.8385,2350.2586 873.9685,2356.3556 900.9185,2361.4166 C992.2085,2382.2276 1085.2785,2420.6496 1182.9095,2401.9026 C1197.2395,2399.6466 1211.4185,2391.8876 1215.5885,2377.5696 C1218.1595,2383.6376 1216.5695,2391.8556 1217.5985,2398.5286 C1217.7895,2401.1886 1217.8485,2404.0656 1216.7295,2406.4866 M835.8585,2249.1966 C837.5585,2232.2436 840.2785,2214.3346 849.9285,2199.3546 C848.8785,2223.5826 863.4285,2264.7636 895.3085,2251.0446 C904.3385,2246.2586 909.3995,2236.6216 915.2085,2228.8826 C934.5185,2203.4226 959.2785,2181.3146 987.2495,2165.2496 C1002.8085,2167.9246 1009.4995,2196.3786 1019.5285,2208.2876 C1008.3485,2213.2716 988.0885,2224.6236 986.0395,2236.3656 C999.9995,2231.6696 1012.8485,2222.9246 1027.4895,2219.8506 C1032.1785,2226.3236 1037.1495,2232.6006 1042.3695,2238.6646 C1035.5485,2241.6686 1008.0485,2255.5686 1008.2295,2262.5076 C1023.0985,2260.0916 1037.5085,2252.8116 1052.4585,2249.8206 C1059.1085,2256.4156 1065.1595,2263.5136 1071.7785,2270.1306 C1061.7785,2274.2496 1051.2185,2278.8486 1045.7585,2288.4486 C1045.4995,2288.8826 1046.1385,2289.3676 1046.4895,2288.9486 C1053.9795,2279.9176 1066.8695,2278.2596 1078.0395,2276.2276 C1095.1785,2292.3666 1114.3695,2306.6036 1135.8485,2317.2546 C1157.3385,2329.0056 1189.9995,2331.6936 1198.5485,2357.1836 C1205.3885,2382.6686 1184.0585,2385.3896 1164.3785,2387.1896 C1144.4685,2390.0216 1124.4185,2390.4516 1104.6385,2388.7976 C1042.8085,2386.2206 984.3585,2368.0176 925.9285,2352.1146 C854.4895,2338.9646 831.3085,2328.3166 835.8585,2249.1966 M972.2295,2157.0836 C944.8585,2177.3256 918.1385,2199.8816 899.1285,2228.1146 C886.5485,2251.0856 869.8085,2237.1036 865.6495,2218.7016 C862.2785,2177.6166 865.1785,2142.1376 861.2295,2100.8076 C899.0795,2105.9676 937.9585,2102.7876 974.9285,2093.6576 C970.4795,2112.1076 968.4385,2119.1116 968.2985,2138.0396 C968.5395,2144.2766 968.4485,2151.8906 972.2295,2157.0836 M835.6095,954.7216 C831.9695,956.0496 830.4165,950.2496 834.0145,948.9366 C836.4855,948.0346 838.9835,947.2296 841.4935,946.4676 C841.8055,945.7956 842.3655,945.2186 843.2295,944.9036 C872.6905,934.1706 905.6025,935.2146 936.3755,937.7806 C952.9155,939.1606 969.4195,941.0136 985.7625,943.9246 C1001.4085,946.7106 1016.9335,950.1306 1032.5865,952.8656 C1035.7825,953.2686 1038.9775,953.6536 1042.1705,954.0126 C1045.9715,954.4406 1046.0015,960.4446 1042.1705,960.0126 C1041.4665,959.9336 1040.7645,959.8406 1040.0605,959.7586 C1039.5945,959.9256 1039.0735,959.9976 1038.4935,959.9056 C1036.0575,959.5206 1033.6255,959.1116 1031.1975,958.6876 C1020.5135,957.3196 1009.8565,955.7476 999.2005,954.1856 C971.1675,950.0756 943.0455,945.9726 914.6985,944.9066 C888.0565,943.9046 860.8535,945.5096 835.6095,954.7216 M1037.4285,385.0176 C1030.9185,474.7776 1032.5985,554.9576 1033.9995,644.8576 C1034.8085,705.3276 1035.1885,765.8176 1033.0885,826.2676 C979.8585,688.6876 996.1495,539.3976 988.5885,394.7876 C1004.3195,389.5476 1021.2185,387.2576 1037.4285,385.0176 M765.7295,1048.6776 C770.7085,1058.1876 779.0695,1065.8376 788.9795,1070.6176 C787.7585,1073.0176 787.3385,1075.7176 787.2085,1078.2476 C769.3585,1081.8976 774.3785,1090.3676 762.3195,1094.4076 C754.4285,1096.5876 746.8385,1097.5176 740.0185,1102.2976 C716.8085,1123.9176 711.0485,1122.3276 686.1385,1103.3076 C686.4795,1101.5876 652.5795,1068.4776 642.0795,1049.9676 C633.3295,1034.5276 624.1685,1018.9776 610.7585,1007.0376 C545.0885,939.7976 475.1285,876.3376 411.5585,807.2376 C284.1595,680.2876 308.4685,536.3376 337.7295,377.7676 C384.9585,383.4076 432.4485,394.7376 474.9795,415.5376 C459.9795,485.5276 459.0185,548.9676 452.5585,619.9876 C450.6085,628.7676 452.8085,645.6776 465.2495,641.7776 C579.5985,732.5676 592.8885,919.1376 742.9485,973.0876 C804.1085,997.9476 778.2985,1018.1276 798.5085,1065.0676 C787.3885,1063.0276 777.4685,1053.7076 772.6885,1044.7876 C770.3195,1040.3576 763.4185,1044.2576 765.7295,1048.6776 M483.4525,992.2686 C479.7725,992.6986 476.0825,993.0166 472.3895,993.3166 C471.9615,993.6636 471.4305,993.9156 470.7805,993.9966 C465.0265,994.7146 459.1595,995.6546 453.3455,996.9286 C444.7195,999.9856 436.0025,1002.7786 427.3255,1005.6866 C426.5655,1006.0606 425.8095,1006.4396 425.0625,1006.8356 C424.3465,1007.2146 423.6535,1007.2746 423.0275,1007.1346 C422.7745,1007.2206 422.5195,1007.3036 422.2665,1007.3906 C422.2015,1007.4126 422.1355,1007.4356 422.0715,1007.4576 C421.8415,1007.4496 421.6105,1007.4426 421.3755,1007.4326 C421.0345,1007.4186 420.4475,1007.3916 419.7525,1007.3466 C419.7375,1007.0816 419.7425,1006.8216 419.7345,1006.5586 C417.2855,1006.6296 415.0905,1003.5686 417.3955,1001.5476 C425.8445,994.1386 437.1955,991.4296 448.0445,989.7916 C459.7885,988.0176 471.6675,987.6466 483.4525,986.2686 C487.2865,985.8206 487.2415,991.8256 483.4525,992.2686 M375.5585,2012.0676 C365.0395,2011.2576 320.0485,2009.7076 314.6495,2016.7676 C320.7295,2019.3376 329.0885,2017.9176 335.6285,2018.2076 C348.3295,2018.7276 360.9995,2019.8476 373.5695,2021.6276 C372.6285,2026.5276 371.7785,2031.4176 371.0795,2036.3276 C358.3995,2037.5376 333.7085,2038.0876 325.6595,2046.9576 C340.0185,2049.2476 354.9685,2047.1876 369.3785,2050.0476 C368.6785,2056.7676 368.1685,2063.4976 367.7895,2070.2276 C362.0485,2070.8376 328.2895,2076.4276 328.3195,2081.7376 C340.9585,2083.4176 354.3485,2081.2076 367.2295,2082.4576 C364.4385,2122.7876 373.8995,2244.5776 318.7785,2252.0276 C270.5885,2249.4876 249.4485,2171.3876 242.8995,2133.9176 C228.3785,2046.6176 230.8695,1953.5376 259.6495,1869.3876 C269.9285,1845.9876 297.9095,1841.9276 321.5695,1840.7176 C322.4685,1844.6776 323.3585,1848.5676 324.3585,1852.4876 C314.0985,1875.7476 310.8295,1901.9376 310.5485,1927.1076 C312.7185,1963.2876 357.3585,1990.1876 389.7785,1966.2876 C383.7185,1981.0876 379.0395,1996.4876 375.5585,2012.0676 M311.7895,2272.3376 C216.3385,2251.8176 200.6785,2141.2776 207.2395,2059.9976 C212.5885,2003.4176 206.1595,1884.1276 258.3885,1850.8876 C190.8885,1912.5076 196.7495,2332.0076 346.3385,2258.7876 C342.6085,2270.6076 323.4285,2274.0176 311.7895,2272.3376 M330.4895,1877.9376 C330.6595,1876.4776 330.8485,1875.0276 331.0485,1873.5676 C341.6385,1902.3376 359.7785,1929.6776 386.7895,1946.3376 C376.4485,1959.2376 356.3085,1963.0776 342.7185,1952.5176 C319.0185,1934.7476 328.8995,1902.5976 330.4895,1877.9376 M655.8485,39.9976 C655.6595,40.3276 655.4585,40.6576 655.2585,40.9776 C653.9385,41.0676 652.6085,41.1876 651.2585,41.3376 C652.7895,40.8776 654.3195,40.4476 655.8485,39.9976 M1225.9995,2388.9776 C1225.7395,2381.8216 1225.6385,2372.5776 1217.2585,2370.0376 C1221.0585,2339.1986 1195.4585,2321.6436 1168.5795,2313.0986 C1145.6595,2299.0766 1119.6685,2289.2826 1098.6085,2272.3786 C1108.3885,2270.5416 1118.1685,2268.3246 1126.8585,2264.0686 C1133.4185,2260.8586 1130.2585,2250.1716 1123.1495,2251.1616 C1110.5585,2252.8226 1099.2495,2259.2236 1087.4185,2263.6726 C1080.6985,2258.1516 1074.1885,2252.3886 1068.0395,2246.2856 C1075.6985,2244.8056 1085.4385,2245.3506 1089.8995,2237.7466 C1091.2895,2235.3696 1090.6685,2232.9036 1088.9895,2231.0666 C1081.2295,2223.2126 1065.8485,2231.0556 1056.2085,2233.3446 C1051.5795,2228.0086 1047.1085,2222.5646 1042.7185,2217.0556 C1049.9995,2216.3856 1068.9385,2217.7166 1065.2295,2205.6996 C1058.1195,2196.3006 1042.8295,2201.9396 1032.5485,2203.8736 C1019.5085,2187.8396 1015.3085,2163.2396 994.9285,2154.4176 C994.1985,2150.5286 989.1195,2150.8266 985.7295,2151.9826 C980.7395,2128.1566 981.1195,2116.0476 982.5795,2091.6276 C997.7085,2087.4376 1012.7185,2081.9376 1025.2985,2072.9176 C1031.0795,2074.6176 1038.0885,2072.6576 1039.2895,2065.8676 C1049.7495,1996.3276 1054.3995,1925.9276 1062.9095,1856.1376 C1093.9385,1599.1276 1100.6985,1285.4276 1043.2585,1031.5176 C1042.8085,1021.8976 1043.4895,1012.2676 1044.4585,1002.7176 C1051.3085,1000.8876 1055.3885,994.1976 1061.0585,990.3276 C1071.5985,981.7376 1082.3195,976.9276 1083.2895,961.9376 C1085.4185,959.9076 1085.6685,956.8376 1084.4995,954.1776 C1087.2295,938.7876 1083.2085,923.5076 1075.0185,910.2076 C1066.0395,895.0576 1057.5585,879.7676 1050.0695,863.8676 C1066.4485,703.6076 1044.2295,548.2876 1056.3785,387.2276 C1071.9585,378.9776 1062.1785,333.1376 1060.7295,317.8576 C1051.6285,217.5076 1004.7785,106.7076 905.1685,64.9676 C898.1785,59.0676 888.4185,57.0676 879.8785,53.8176 C874.1085,50.9776 864.7185,48.5176 860.7685,55.1276 C856.5795,53.1776 843.0885,51.6876 838.4685,48.3076 C837.6085,47.6776 837.0585,46.9876 836.9285,46.2176 C836.5885,46.2276 836.1885,46.1576 835.7585,46.0676 C831.4995,40.0476 827.4385,-1.8824 822.1885,1.1076 C816.4585,15.5076 820.4285,31.7776 825.9095,46.3176 C829.6885,59.1776 834.8695,92.2576 854.9485,83.7976 C858.4095,82.0776 856.2685,77.6076 853.1685,77.2476 C843.6495,74.5276 841.5285,60.5376 837.8485,52.3376 C842.2085,55.9576 862.0695,61.3876 864.2395,62.5376 C907.3195,161.4176 646.8485,156.2276 626.3695,88.0576 C611.7685,64.5076 624.3695,51.7476 650.3995,47.9676 C631.2685,69.2276 655.4895,73.9476 664.6985,53.0976 C673.5085,38.1676 677.5185,20.0276 674.5085,2.8476 C676.0585,-3.1824 677.3695,-11.2424 668.3485,-9.6224 C668.0395,-10.4224 667.5485,-9.7924 667.7395,-9.2224 C664.4485,-3.9824 666.7395,3.5476 665.5695,9.5976 C664.5795,19.4976 661.7685,29.1976 656.9995,37.9576 C648.1495,39.6476 639.3385,41.4576 630.5695,43.4376 C625.3085,32.7476 591.1885,54.0676 582.0285,56.5776 C460.3385,92.5276 367.7985,188.2676 335.4995,309.0276 C328.2895,325.1076 320.5085,341.2676 314.6085,357.8476 C311.9685,365.0276 311.9685,373.9376 319.2185,378.5876 C283.8885,540.6576 275.2685,709.5176 408.7395,831.0776 C411.7685,844.2376 409.7495,858.1976 409.6595,871.5976 C410.5335,895.4266 394.8365,964.3996 402.3245,999.9416 C401.5115,1001.4946 400.9365,1003.1606 400.7115,1004.9396 C399.6635,1013.2016 406.3845,1018.5216 413.7995,1019.8756 C414.0245,1019.9166 414.2565,1019.9556 414.4855,1019.9956 C414.6535,1020.0786 414.8165,1020.1706 414.9895,1020.2476 C406.1385,1155.7476 439.3295,1340.1176 471.4995,1470.8376 C473.8785,1515.7676 460.3295,1556.6376 423.8585,1584.9876 C354.5185,1636.8276 325.3085,1723.3576 317.1985,1805.8176 C316.0485,1814.2676 317.1785,1822.8676 319.0795,1831.1676 C304.0485,1833.9676 289.9795,1835.7876 275.3885,1841.2976 C194.9185,1825.8776 200.6595,1998.7676 194.4995,2050.0676 C189.6785,2125.9076 192.6885,2216.8176 262.3785,2266.4776 C285.8085,2283.1576 327.1685,2299.1776 349.9995,2273.9176 C356.4585,2266.1876 359.9795,2257.1476 357.4385,2247.2676 C390.1685,2199.3376 382.4385,2138.0776 384.8885,2083.5376 C393.4585,2083.8376 402.7985,2087.6576 411.2395,2085.5576 C417.7395,2083.8376 418.5695,2075.4976 413.0695,2072.1776 C405.1285,2067.6776 394.3385,2069.3876 385.4585,2069.0876 C385.7295,2063.8676 386.1195,2058.6476 386.6195,2053.4276 C395.0485,2055.4876 407.1285,2060.4376 409.6385,2048.6576 C410.6495,2037.9276 397.0985,2037.1076 388.6595,2036.6476 C389.2495,2032.5976 389.9095,2028.5676 390.6595,2024.5476 C397.1195,2025.1976 403.9385,2029.3176 410.2895,2027.3476 C413.8885,2025.9276 415.1385,2022.2876 412.5085,2019.3376 C407.6195,2014.5476 399.2585,2015.5076 392.7895,2014.0176 C396.7185,1994.7676 403.8195,1976.3576 410.6595,1957.9476 C423.0395,1962.2476 436.4485,1965.0876 449.6595,1964.0076 C456.5085,1962.5676 463.9895,1962.1576 470.9095,1963.0876 C478.6085,1961.0476 480.3885,1952.8176 481.3995,1946.0976 C481.2495,1945.8576 481.0985,1945.6276 480.9285,1945.4176 C498.7185,1841.8176 562.5395,1752.3176 634.0985,1675.2076 C653.8085,1653.1476 673.1385,1630.2076 686.5285,1604.0076 C713.7295,1549.2476 718.6085,1487.6376 739.4185,1430.7476 C756.9485,1379.0876 780.3785,1329.5476 803.3485,1279.9376 C812.5585,1345.2776 829.7585,1409.5476 831.7295,1475.8076 C834.7295,1559.6376 816.2585,1642.2476 808.3785,1725.4076 C794.2085,1834.8576 807.0795,1944.9876 800.2395,2054.5176 C800.2895,2062.2676 801.2895,2069.5676 800.1885,2077.3176 C799.5795,2081.6076 802.6595,2084.2976 805.8995,2084.3876 C817.7985,2092.1976 832.7495,2094.9676 846.4285,2098.3076 C850.2185,2101.2076 848.5795,2108.3476 849.2495,2112.7176 C850.7185,2137.2676 852.6595,2155.7946 850.2685,2180.5456 C836.8885,2200.3306 827.2495,2197.1696 823.5285,2227.2436 C821.4795,2258.6356 816.9685,2292.5836 830.6885,2321.0806 C824.5485,2322.4776 822.2185,2341.2156 823.1385,2346.1746 C824.6985,2360.1586 837.0285,2364.5826 848.9485,2369.4086 C936.0585,2402.0486 1121.1495,2455.7816 1210.6595,2418.8296 C1217.0695,2422.4576 1224.2185,2415.3456 1226.2895,2409.6216 C1229.0285,2402.6516 1226.5085,2395.8996 1225.9995,2388.9776" id="Ink" fill="#000"/></g></g><g id="Head" transform="translate(405.000000, 189.000000) scale(0.9978902953586498 1)"><g id="Head/Short 2" stroke="none" stroke-width="1" fill="none" fill-rule="evenodd"><path d="M405.2634,225.3185 C416.6414,217.1465 399.6754,190.2595 393.9114,182.2595 C388.8974,171.8235 383.8834,161.3865 378.8684,150.9495 C379.4784,142.3905 371.1204,134.7755 362.8614,137.3795 C355.6764,132.2265 343.6424,134.6935 339.9904,142.7615 C260.5434,108.1595 123.0774,122.5545 115.9684,229.3265 C100.6004,259.7265 85.3684,290.3865 71.7334,321.6075 C52.8154,322.6235 43.6454,345.6065 54.9084,360.4595 C56.4074,384.5785 71.6984,386.4875 92.1124,385.4145 C100.3104,387.5735 108.8084,388.7435 114.9564,395.0745 C119.6294,399.8495 122.8054,405.9045 125.8704,411.7795 C140.0154,438.8855 157.9864,462.3335 182.3464,481.0845 C220.2294,509.4355 271.5114,529.7905 318.7494,515.9895 C420.3064,476.1075 440.2504,316.7215 405.2634,225.3185 L405.2634,225.3185 Z" id="Skin" fill="#694d3d"/><path d="M193.3197,69.993 C259.6697,54.583 334.2097,75.263 380.2597,126.213 C383.4997,129.793 383.1497,134.453 380.2997,137.473 C381.6297,138.553 382.9297,139.663 384.2497,140.773 C385.6297,141.943 385.4297,144.293 384.2497,145.483 C383.0797,146.653 380.6497,146.893 379.5397,145.483 L377.89666,143.415 C377.0785,142.3818 376.2697,141.345 375.4897,140.283 C374.5397,140.633 373.6097,141.003 372.6797,141.363 C386.7497,150.713 398.4797,163.133 406.5197,178.083 C415.2197,194.253 420.7697,211.513 424.3797,229.473 C430.814788,261.510895 431.748121,294.369227 430.8875,326.947983 L430.8397,328.693 C429.7297,367.963 425.8997,407.883 409.3397,443.993 C396.0597,472.933 372.4597,499.543 342.8697,512.213 C325.8297,519.503 307.5097,522.613 288.9997,521.313 C279.2397,520.633 269.5097,519.093 260.0097,516.743 L257.72768,516.175922 C249.073411,514.008595 240.097808,511.495973 232.7097,506.543 C225.1297,501.453 230.2397,491.343 238.5997,492.573 C248.6697,494.063 258.2597,498.263 268.2497,500.443 C278.0197,502.583 287.9097,503.703 297.9197,503.413 C315.6297,502.913 331.7597,497.473 346.3997,487.593 C402.3697,449.803 409.1697,373.823 410.6297,312.423 C411.3397,282.423 410.2397,252.033 403.3397,222.723 C396.7097,194.543 385.2997,166.793 369.1497,142.723 C365.5897,144.053 362.0297,145.163 358.2397,145.513 C351.483922,149.574111 343.449823,149.681558 335.638112,149.683087 L334.5497,149.683 C326.4197,149.673 318.2897,149.193 310.1997,148.463 C281.5697,145.923 252.1097,139.483 223.3297,143.583 L222.154439,143.754801 C210.304091,145.537027 195.6197,149.277194 186.9197,157.803 C177.5197,167.003 183.8197,184.413 191.2597,189.943 C196.0697,193.523 197.5697,201.583 191.2597,204.833 C178.7997,211.263 148.6397,207.693 145.2497,211.253 C141.180135,215.508435 141.464894,221.993666 141.348131,227.516286 L141.3397,227.883 C140.9197,243.603 141.3097,259.273 142.6397,274.953 C143.9197,290.113 146.8297,305.303 147.4797,320.503 C147.6997,325.513 141.6497,327.033 138.3397,324.283 C137.6897,323.743 137.0197,323.233 136.3497,322.773 C130.3397,318.513 123.5097,316.713 116.1797,315.573 C115.7947,315.51175 115.493919,315.320344 115.277356,315.065773 L115.1897,314.953 L114.4097,315.593 C115.9297,317.483 117.2297,319.623 118.2597,322.023 C118.4697,322.503 118.0197,323.113 117.4897,322.793 C107.3497,316.763 96.3097,314.203 84.6397,316.643 C74.1397,318.833 64.6397,325.493 61.5597,336.153 C58.7297,345.963 60.8097,357.273 67.1597,365.343 C76.5497,377.303 91.7997,376.223 105.4797,376.773 C108.1597,376.883 111.1497,378.183 112.3997,380.743 C113.8697,383.763 113.7697,385.823 112.3997,388.833 C112.2097,389.263 111.9597,389.653 111.6697,390.003 C112.828033,390.961333 113.923867,392.009944 114.991922,393.079389 L118.563811,396.676586 C121.007251,399.144224 123.436843,401.633 125.7797,404.183 C132.6597,411.683 139.1297,419.663 145.2197,427.813 L145.782389,428.574101 C152.915703,438.332297 160.315085,452.424026 172.6797,455.503 C176.9197,456.563 180.8597,458.653 182.1197,463.243 C183.3797,467.833 180.4097,472.283 176.4197,474.203 C169.4997,477.533 160.7197,473.573 155.0097,469.373 C142.695734,460.302138 134.650669,445.503996 127.087345,432.476958 L125.016223,428.916691 C121.121106,422.195188 117.31595,415.39425 114.0697,408.333 C112.2197,404.303 110.2297,400.303 108.5097,396.213 C108.0097,395.023 107.5097,393.813 107.1197,392.573 C106.5697,392.693 106.0097,392.773 105.4797,392.803 C88.9697,393.883 69.9597,391.263 58.0297,378.733 C41.5797,361.463 39.6497,330.583 58.3397,314.103 C60.3097,312.363 62.5297,310.833 64.9297,309.523 C61.5897,303.873 59.3797,297.323 57.7497,291.173 C55.3697,282.193 54.0397,273.043 53.3797,263.783 C52.0497,244.893 54.2597,225.663 58.7997,207.313 C75.2597,140.803 125.7997,85.673 193.3197,69.993 Z M73.7498,345.9827 C70.4828,327.0341 108.399602,341.046263 116.668379,342.366621 L116.9098,342.4027 C126.394,343.7194 121.108093,360.355063 111.773883,355.399515 L111.4898,355.2427 C106.440467,352.349367 100.885889,350.274878 95.5903215,347.824069 L94.4598,347.2927 C90.2498,345.2727 76.3398,336.2027 74.8298,345.9827 C74.7498,346.5227 73.8398,346.5127 73.7498,345.9827 Z" id="Ink" fill="#000"/></g></g><g id="Beard" transform="translate(527.000000, 518.000000) scale(1 1)" fill="#000"><g id="Beard/None" stroke="none" stroke-width="1" fill="none" fill-rule="evenodd" fill-opacity="0"/></g><g id="Face" transform="translate(563.000000, 366.000000) scale(1 1)" fill="#000"><g id="Face/Smile" stroke="none" stroke-width="1" fill="none" fill-rule="evenodd"><path d="M146.586567,240.926554 C139.864291,238.184203 133.866322,233.609781 129.481228,227.766254 C127.956691,225.734803 127.561405,223.589624 127.881219,221.627583 C128.240828,219.421406 129.546036,217.4219 131.326046,216.080693 C133.111571,214.735331 135.345035,214.071832 137.504329,214.410065 C139.380629,214.703969 141.248396,215.731287 142.726594,217.861908 L143.035427,218.287981 C145.642441,221.814933 149.039621,224.708755 152.91047,226.573991 C156.641339,228.371775 160.813939,229.21087 165.131898,228.722919 C173.355732,227.793938 179.024012,223.346401 185.048774,217.30672 C185.795561,216.544195 186.542826,215.757766 187.293714,214.958678 C187.767915,214.234308 188.425986,213.768756 189.156624,213.524488 C189.967867,213.253272 190.885573,213.268617 191.726122,213.56195 C192.536835,213.844871 193.261572,214.380994 193.747527,215.094538 C194.209389,215.772704 194.47125,216.610486 194.386283,217.574143 C193.834826,223.833283 190.562474,229.419299 185.914235,233.805502 C180.751772,238.67694 173.908551,242.047034 167.465957,243.229031 C160.36811,244.531047 153.135593,243.598228 146.586567,240.926554 L146.586567,240.926554 Z M170.814304,144.367155 C178.365682,148.9572 189.871664,159.660291 181.748119,171.039573 C172.185929,181.073062 158.418535,169.568982 151.634201,164.366134 C145.343449,160.333898 138.275437,170.704507 144.112,175.412823 C193.135736,211.708059 213.030606,145.567387 174.633685,138.970386 C170.406047,138.243425 168.835891,142.947174 170.814304,144.367155 Z M82.9633,102.1464 C83.7976284,91.7901242 99.5703,89.4384 101.1393,99.6864 C102.5443,108.8664 100.8903,117.2994 96.7553,125.5644 C92.8043,133.4604 82.8737826,129.776544 82.1227826,122.586544 C81.1160984,112.948648 82.4443,108.588596 82.9633,102.1464 Z M203.027,97.5615 C205.226,94.6815 208.401,92.7155 212.205,93.8265 C224.09,97.2995 220.587,114.1725 216.413,122.3855 C214.145,126.8455 206.814,127.9765 203.501,124.0495 C198.101,117.6455 195.515,104.8565 202.38,98.5485 C202.566,98.2225 202.773,97.8935 203.027,97.5615 Z M96.5879,56.8305 L98.465271,56.501905 C104.27307,55.49746 111.4944,54.5323 115.6029,59.2015 C117.7819,61.6775 118.5319,66.2795 115.6029,68.6495 C110.4509,72.8195 104.7549,71.2035 98.5809,71.5565 C93.4929,71.8485 88.6029,72.6905 83.7019,74.0915 C72.9499,77.1645 64.1889,82.7745 55.0059,88.9345 C53.8009,89.7425 52.5709,88.2015 53.1459,87.0745 C58.4469,76.6915 68.7199,68.1625 79.0099,62.9635 C84.5019,60.1885 90.5119,57.8865 96.5879,56.8305 Z M192.192876,52.1793876 L193.629806,52.4734684 C209.267042,55.742077 229.583473,62.2713911 236.988459,77.6308459 C237.270623,79.8027272 236.97249,80.2682047 236.730054,80.5723213 L236.649336,80.6735209 C236.449568,80.9332186 236.290169,81.2912104 235.348782,81.5868073 C235.087547,81.5245653 234.823712,81.4586426 234.557082,81.3887687 C231.162766,80.499243 228.477205,79.2737961 225.877298,78.0022488 L223.058339,76.6134493 C219.787784,75.0098309 216.488352,73.4645766 212.991711,72.3238115 C205.52958,69.8898666 197.854137,68.1753043 190.059777,67.259767 C188.37041,67.0615005 186.743655,66.4913394 185.460262,65.5141761 C184.242065,64.5866523 183.311441,63.3024737 182.887128,61.5955207 C182.33722,59.3864508 182.495251,57.7140037 183.680513,55.7210991 C184.571756,54.2244705 185.846982,53.1871113 187.311265,52.5914244 C188.804038,51.9841473 190.503545,51.840982 192.192876,52.1793876 Z" id="Ink" fill="#000"/></g></g><g id="Mask" transform="translate(428.000000, 479.000000) scale(1 1)" fill="#000"><g id="Mask/None" stroke="none" stroke-width="1" fill="none" fill-rule="evenodd" fill-opacity="0"/></g><g id="Accessories" transform="translate(451.000000, 421.000000) scale(1 1)" fill="#000"><g id="Accessories/Glasses 5" stroke="none" stroke-width="1" fill="none" fill-rule="evenodd"><path d="M367.0895,74.4323 C364.2615,82.1283 359.9575,90.1403 354.6945,96.6173 C333.4005,114.6493 312.7095,104.6653 302.2035,80.2263 C298.2115,62.9553 308.8105,44.3513 320.0415,31.6463 C336.2615,15.3893 362.7325,23.9213 370.1905,43.2473 C370.6435,45.7513 370.9175,48.2493 371.0485,50.7393 C370.8935,58.8303 369.9185,65.7453 367.0895,73.4323 M162.4095,58.9113 C190.4615,25.5443 242.9415,23.7603 241.6025,75.1153 C235.5765,140.1193 134.1055,124.1643 162.4095,58.9113 Z M375.9125,31.0763 C374.9295,29.4113 373.8385,27.8003 372.6475,26.2593 C372.2075,25.9973 371.9545,23.6733 370.3365,23.5013 C348.7095,-0.3577 310.7165,13.1793 296.9885,36.9533 C294.4815,39.9593 292.4365,43.4783 290.9285,47.1963 C277.4025,44.7153 261.6335,45.1973 249.0535,50.3063 C236.5795,17.7343 198.8145,14.8263 173.9275,28.7433 C158.4485,36.3563 148.4115,52.2993 133.3575,61.0573 C97.9685,63.6043 59.9875,55.6753 25.2375,64.5523 C-2.1685,70.2503 20.7415,84.1273 25.3375,74.8663 C58.1005,65.1863 96.9155,73.3663 130.9325,71.1853 C134.4695,77.1683 141.2525,82.0643 148.0125,81.8553 C155.3135,146.5763 249.6975,135.8443 252.9535,78.3113 C256.6465,72.4723 261.2395,66.8843 267.8135,63.2463 C270.3305,62.7253 272.7615,62.0483 274.9835,61.0003 C278.7815,60.4643 284.6335,62.0743 288.1275,65.2363 C300.0965,137.0523 369.0515,128.6883 381.3745,65.7743 C381.6195,65.5243 382.3045,64.5863 382.8305,63.0813 C387.0485,57.5043 397.3745,55.4313 395.7245,46.0163 C394.2555,36.5993 382.3635,36.7113 375.9125,31.0763 Z" id="Ink" fill="#000"/></g></g></g></svg>