<svg id="visual" viewBox="0 0 900 600" width="900" height="600" xmlns="http://www.w3.org/2000/svg" xmlns:xlink="http://www.w3.org/1999/xlink" version="1.1"><rect x="0" y="0" width="900" height="600" fill="#002233"></rect><path d="M0 37L11.5 47.7C23 58.3 46 79.7 69 81.5C92 83.3 115 65.7 138.2 56.8C161.3 48 184.7 48 207.8 75.3C231 102.7 254 157.3 277 169.7C300 182 323 152 346 144.2C369 136.3 392 150.7 415.2 135.3C438.3 120 461.7 75 484.8 81.8C508 88.7 531 147.3 554 148.2C577 149 600 92 623 64.2C646 36.3 669 37.7 692.2 61.8C715.3 86 738.7 133 761.8 140.8C785 148.7 808 117.3 831 119C854 120.7 877 155.3 888.5 172.7L900 190L900 0L888.5 0C877 0 854 0 831 0C808 0 785 0 761.8 0C738.7 0 715.3 0 692.2 0C669 0 646 0 623 0C600 0 577 0 554 0C531 0 508 0 484.8 0C461.7 0 438.3 0 415.2 0C392 0 369 0 346 0C323 0 300 0 277 0C254 0 231 0 207.8 0C184.7 0 161.3 0 138.2 0C115 0 92 0 69 0C46 0 23 0 11.5 0L0 0Z" fill="#0066FF" stroke-linecap="round" stroke-linejoin="miter"></path></svg>