<svg id="visual" viewBox="0 0 900 600" width="900" height="600" xmlns="http://www.w3.org/2000/svg" xmlns:xlink="http://www.w3.org/1999/xlink" version="1.1"><rect x="0" y="0" width="900" height="600" fill="#002233"></rect><path d="M0 471L11.5 475.3C23 479.7 46 488.3 69 474.5C92 460.7 115 424.3 138.2 410.5C161.3 396.7 184.7 405.3 207.8 425.7C231 446 254 478 277 455.7C300 433.3 323 356.7 346 325.3C369 294 392 308 415.2 336.8C438.3 365.7 461.7 409.3 484.8 429C508 448.7 531 444.3 554 452.2C577 460 600 480 623 479.3C646 478.7 669 457.3 692.2 437.2C715.3 417 738.7 398 761.8 402.8C785 407.7 808 436.3 831 432.2C854 428 877 391 888.5 372.5L900 354L900 601L888.5 601C877 601 854 601 831 601C808 601 785 601 761.8 601C738.7 601 715.3 601 692.2 601C669 601 646 601 623 601C600 601 577 601 554 601C531 601 508 601 484.8 601C461.7 601 438.3 601 415.2 601C392 601 369 601 346 601C323 601 300 601 277 601C254 601 231 601 207.8 601C184.7 601 161.3 601 138.2 601C115 601 92 601 69 601C46 601 23 601 11.5 601L0 601Z" fill="#0066FF" stroke-linecap="round" stroke-linejoin="miter"></path></svg>